<mxfile host="Electron" modified="2024-04-26T03:58:22.161Z" agent="Mozilla/5.0 (Windows NT 10.0; Win64; x64) AppleWebKit/537.36 (KHTML, like Gecko) draw.io/21.6.8 Chrome/114.0.5735.289 Electron/25.5.0 Safari/537.36" etag="eVY0wPVJ3OVQlI7ytzJp" version="21.6.8" type="device">
  <diagram id="C5RBs43oDa-KdzZeNtuy" name="Page-1">
    <mxGraphModel dx="938" dy="530" grid="1" gridSize="10" guides="1" tooltips="1" connect="1" arrows="1" fold="1" page="1" pageScale="1" pageWidth="827" pageHeight="1169" background="none" math="0" shadow="0">
      <root>
        <mxCell id="WIyWlLk6GJQsqaUBKTNV-0" />
        <mxCell id="WIyWlLk6GJQsqaUBKTNV-1" parent="WIyWlLk6GJQsqaUBKTNV-0" />
        <mxCell id="xW0SYJLAr49xiK4sMMPl-133" style="edgeStyle=orthogonalEdgeStyle;rounded=0;orthogonalLoop=1;jettySize=auto;html=1;exitX=1;exitY=0.5;exitDx=0;exitDy=0;entryX=0;entryY=0.5;entryDx=0;entryDy=0;" edge="1" parent="WIyWlLk6GJQsqaUBKTNV-1" source="xW0SYJLAr49xiK4sMMPl-89" target="xW0SYJLAr49xiK4sMMPl-88">
          <mxGeometry relative="1" as="geometry" />
        </mxCell>
        <mxCell id="xW0SYJLAr49xiK4sMMPl-89" value="" style="shape=process;whiteSpace=wrap;html=1;backgroundOutline=1;size=0.03176269999887105;" vertex="1" parent="WIyWlLk6GJQsqaUBKTNV-1">
          <mxGeometry x="37.32" y="370" width="260" height="60" as="geometry" />
        </mxCell>
        <mxCell id="xW0SYJLAr49xiK4sMMPl-137" style="edgeStyle=orthogonalEdgeStyle;rounded=0;orthogonalLoop=1;jettySize=auto;html=1;exitX=0.75;exitY=1;exitDx=0;exitDy=0;entryX=0.774;entryY=-0.012;entryDx=0;entryDy=0;entryPerimeter=0;" edge="1" parent="WIyWlLk6GJQsqaUBKTNV-1" source="xW0SYJLAr49xiK4sMMPl-88" target="xW0SYJLAr49xiK4sMMPl-72">
          <mxGeometry relative="1" as="geometry" />
        </mxCell>
        <mxCell id="xW0SYJLAr49xiK4sMMPl-88" value="" style="shape=process;whiteSpace=wrap;html=1;backgroundOutline=1;size=0.03176269999887105;" vertex="1" parent="WIyWlLk6GJQsqaUBKTNV-1">
          <mxGeometry x="330" y="370" width="295.21" height="60" as="geometry" />
        </mxCell>
        <mxCell id="xW0SYJLAr49xiK4sMMPl-132" style="edgeStyle=orthogonalEdgeStyle;rounded=0;orthogonalLoop=1;jettySize=auto;html=1;exitX=0;exitY=0.75;exitDx=0;exitDy=0;entryX=1.003;entryY=0.402;entryDx=0;entryDy=0;entryPerimeter=0;" edge="1" parent="WIyWlLk6GJQsqaUBKTNV-1" source="xW0SYJLAr49xiK4sMMPl-81" target="xW0SYJLAr49xiK4sMMPl-68">
          <mxGeometry relative="1" as="geometry" />
        </mxCell>
        <mxCell id="xW0SYJLAr49xiK4sMMPl-81" value="" style="shape=process;whiteSpace=wrap;html=1;backgroundOutline=1;size=0.038285735181190106;" vertex="1" parent="WIyWlLk6GJQsqaUBKTNV-1">
          <mxGeometry x="335.64" y="279" width="265.18" height="71" as="geometry" />
        </mxCell>
        <mxCell id="xW0SYJLAr49xiK4sMMPl-131" style="edgeStyle=orthogonalEdgeStyle;rounded=0;orthogonalLoop=1;jettySize=auto;html=1;exitX=0.75;exitY=1;exitDx=0;exitDy=0;entryX=0;entryY=0.577;entryDx=0;entryDy=0;entryPerimeter=0;" edge="1" parent="WIyWlLk6GJQsqaUBKTNV-1" source="xW0SYJLAr49xiK4sMMPl-79" target="xW0SYJLAr49xiK4sMMPl-81">
          <mxGeometry relative="1" as="geometry">
            <Array as="points">
              <mxPoint x="258" y="320" />
              <mxPoint x="336" y="320" />
            </Array>
          </mxGeometry>
        </mxCell>
        <mxCell id="xW0SYJLAr49xiK4sMMPl-79" value="" style="shape=process;whiteSpace=wrap;html=1;backgroundOutline=1;size=0.03703703703703746;" vertex="1" parent="WIyWlLk6GJQsqaUBKTNV-1">
          <mxGeometry x="70" y="230" width="250" height="71" as="geometry" />
        </mxCell>
        <mxCell id="xW0SYJLAr49xiK4sMMPl-135" style="edgeStyle=orthogonalEdgeStyle;rounded=0;orthogonalLoop=1;jettySize=auto;html=1;exitX=0;exitY=0.5;exitDx=0;exitDy=0;entryX=1;entryY=0.5;entryDx=0;entryDy=0;" edge="1" parent="WIyWlLk6GJQsqaUBKTNV-1" source="xW0SYJLAr49xiK4sMMPl-72" target="xW0SYJLAr49xiK4sMMPl-78">
          <mxGeometry relative="1" as="geometry" />
        </mxCell>
        <mxCell id="xW0SYJLAr49xiK4sMMPl-72" value="" style="rounded=0;whiteSpace=wrap;html=1;" vertex="1" parent="WIyWlLk6GJQsqaUBKTNV-1">
          <mxGeometry x="440" y="470" width="143.56" height="30" as="geometry" />
        </mxCell>
        <mxCell id="xW0SYJLAr49xiK4sMMPl-134" style="edgeStyle=orthogonalEdgeStyle;rounded=0;orthogonalLoop=1;jettySize=auto;html=1;exitX=0.5;exitY=1;exitDx=0;exitDy=0;entryX=0.529;entryY=0.004;entryDx=0;entryDy=0;entryPerimeter=0;" edge="1" parent="WIyWlLk6GJQsqaUBKTNV-1" source="xW0SYJLAr49xiK4sMMPl-68" target="xW0SYJLAr49xiK4sMMPl-89">
          <mxGeometry relative="1" as="geometry" />
        </mxCell>
        <mxCell id="xW0SYJLAr49xiK4sMMPl-68" value="" style="rounded=0;whiteSpace=wrap;html=1;" vertex="1" parent="WIyWlLk6GJQsqaUBKTNV-1">
          <mxGeometry x="103.00999999999999" y="320" width="143.56" height="30" as="geometry" />
        </mxCell>
        <mxCell id="xW0SYJLAr49xiK4sMMPl-129" style="edgeStyle=orthogonalEdgeStyle;rounded=0;orthogonalLoop=1;jettySize=auto;html=1;exitX=0;exitY=0.5;exitDx=0;exitDy=0;" edge="1" parent="WIyWlLk6GJQsqaUBKTNV-1" source="xW0SYJLAr49xiK4sMMPl-60">
          <mxGeometry relative="1" as="geometry">
            <mxPoint x="320" y="242.37974683544303" as="targetPoint" />
          </mxGeometry>
        </mxCell>
        <mxCell id="xW0SYJLAr49xiK4sMMPl-60" value="" style="rounded=0;whiteSpace=wrap;html=1;" vertex="1" parent="WIyWlLk6GJQsqaUBKTNV-1">
          <mxGeometry x="361.3" y="230" width="160" height="25" as="geometry" />
        </mxCell>
        <mxCell id="xW0SYJLAr49xiK4sMMPl-128" style="edgeStyle=orthogonalEdgeStyle;rounded=0;orthogonalLoop=1;jettySize=auto;html=1;exitX=0.5;exitY=1;exitDx=0;exitDy=0;entryX=0.611;entryY=-0.018;entryDx=0;entryDy=0;entryPerimeter=0;" edge="1" parent="WIyWlLk6GJQsqaUBKTNV-1" source="xW0SYJLAr49xiK4sMMPl-58" target="xW0SYJLAr49xiK4sMMPl-60">
          <mxGeometry relative="1" as="geometry" />
        </mxCell>
        <mxCell id="xW0SYJLAr49xiK4sMMPl-58" value="" style="shape=process;whiteSpace=wrap;html=1;backgroundOutline=1;size=0.07865345288658171;" vertex="1" parent="WIyWlLk6GJQsqaUBKTNV-1">
          <mxGeometry x="396.44" y="120" width="124.86" height="90" as="geometry" />
        </mxCell>
        <mxCell id="xW0SYJLAr49xiK4sMMPl-127" style="edgeStyle=orthogonalEdgeStyle;rounded=0;orthogonalLoop=1;jettySize=auto;html=1;exitX=1;exitY=0.5;exitDx=0;exitDy=0;entryX=0;entryY=0.5;entryDx=0;entryDy=0;" edge="1" parent="WIyWlLk6GJQsqaUBKTNV-1" source="xW0SYJLAr49xiK4sMMPl-53" target="xW0SYJLAr49xiK4sMMPl-58">
          <mxGeometry relative="1" as="geometry" />
        </mxCell>
        <mxCell id="xW0SYJLAr49xiK4sMMPl-53" value="" style="rounded=0;whiteSpace=wrap;html=1;" vertex="1" parent="WIyWlLk6GJQsqaUBKTNV-1">
          <mxGeometry x="260" y="120" width="112.87" height="90" as="geometry" />
        </mxCell>
        <mxCell id="xW0SYJLAr49xiK4sMMPl-126" style="edgeStyle=orthogonalEdgeStyle;rounded=0;orthogonalLoop=1;jettySize=auto;html=1;exitX=1;exitY=0.5;exitDx=0;exitDy=0;entryX=0;entryY=0.5;entryDx=0;entryDy=0;" edge="1" parent="WIyWlLk6GJQsqaUBKTNV-1" source="xW0SYJLAr49xiK4sMMPl-51" target="xW0SYJLAr49xiK4sMMPl-53">
          <mxGeometry relative="1" as="geometry" />
        </mxCell>
        <mxCell id="xW0SYJLAr49xiK4sMMPl-51" value="" style="rounded=0;whiteSpace=wrap;html=1;" vertex="1" parent="WIyWlLk6GJQsqaUBKTNV-1">
          <mxGeometry x="123.44" y="120" width="123.13" height="90" as="geometry" />
        </mxCell>
        <mxCell id="xW0SYJLAr49xiK4sMMPl-125" style="edgeStyle=orthogonalEdgeStyle;rounded=0;orthogonalLoop=1;jettySize=auto;html=1;exitX=0.5;exitY=1;exitDx=0;exitDy=0;entryX=0.5;entryY=0;entryDx=0;entryDy=0;" edge="1" parent="WIyWlLk6GJQsqaUBKTNV-1" source="xW0SYJLAr49xiK4sMMPl-0" target="xW0SYJLAr49xiK4sMMPl-51">
          <mxGeometry relative="1" as="geometry" />
        </mxCell>
        <mxCell id="xW0SYJLAr49xiK4sMMPl-0" value="" style="shape=parallelogram;perimeter=parallelogramPerimeter;whiteSpace=wrap;html=1;fixedSize=1;" vertex="1" parent="WIyWlLk6GJQsqaUBKTNV-1">
          <mxGeometry x="140.02" y="60" width="89.98" height="30" as="geometry" />
        </mxCell>
        <mxCell id="xW0SYJLAr49xiK4sMMPl-49" value="" style="shape=image;verticalLabelPosition=bottom;labelBackgroundColor=default;verticalAlign=top;aspect=fixed;imageAspect=0;image=data:image/png,iVBORw0KGgoAAAANSUhEUgAAADgAAAAdCAYAAAD/56+bAAAAAXNSR0IArs4c6QAAAARnQU1BAACxjwv8YQUAAAAJcEhZcwAADsMAAA7DAcdvqGQAAAIaSURBVFhH7ZjxkQExFId3dUANdEANqIAW0AEVUAENoAENUAD+pwK0YM/3Ls9lTLJZ3M3N3u03k8nt2+zL+yUvLzfi5Eb0hymZ/s9SCMw7hcC8UwjMO/9X4H6/j9rtdlQqlaLZbGasUTSZTMS2XC6Nxc/lcrn7GAwGxvpJrVYTO++zQDyMdzVi8sJ/Mi56vV5yOp2kr1QqYlssFslwOEyu16s8h2DsdruVnqmOx6N5k4gd23Q6NZZ0VqtVUi6X5TvmpzWbzaRer5sRbrwCVQSOCQRxnU5HbM+y2WzuPhRsBHw+n40lnfF4LE3p9/sijk1IwytQIQCCq1arQWdp4MMOkJ2zn58BcSzO4XAwFj9BgYAzUvUdWG1SSuE56+7ZkAWaqlkIClSHoVwPQXqrD3xmPXs2fBfHcbJer40lTKrA3W4ngc3nc0mxV1ZcIR3VxytnmVgQRywKqUqNSMMrkEBarZacO5wTHKvO3/bZoVgwcWgiLTTdbld8uMDPaDQyT18wnkpui9Pi5/OlOAU2Gg0pKnaes+oEwFm0d1IDD6Uc3zAurbDw3rW7xMI75rcbthDOEXrP2Kjt0a4CQyvJHRg6x/hxLZQ992MLEV6CAFzidnV0oemeVtb1Irez4zt4SyDBIM51P7JjiNI+VNZJzayl/xne3kFfmlDSSbks4iBLur3Cj/6qpq5vBUH636D42TDvFALzTiEw30TRB39HpC12mkqPAAAAAElFTkSuQmCC;" vertex="1" parent="WIyWlLk6GJQsqaUBKTNV-1">
          <mxGeometry x="160.87" y="62.5" width="48.28" height="25" as="geometry" />
        </mxCell>
        <mxCell id="xW0SYJLAr49xiK4sMMPl-50" value="" style="shape=image;verticalLabelPosition=bottom;labelBackgroundColor=default;verticalAlign=top;aspect=fixed;imageAspect=0;image=data:image/png,iVBORw0KGgoAAAANSUhEUgAAAKEAAABtCAYAAADJewF5AAAAAXNSR0IArs4c6QAAAARnQU1BAACxjwv8YQUAAAAJcEhZcwAADsMAAA7DAcdvqGQAAA+ISURBVHhe7Z3Pq1bFH8eP371EtlOJKBdFQhu9C++tRYuUFm1alCBtCi/WKhc3LFpdLJJWgv2ioEVQLQIRlCxIuIpot0JBsEWKRMuibv4Bfp/X3PO+fu4455x57DnP3Pv4ecEwzzNnzsxnPvOZmc88Xmc23BpQOU5B/lfHjlMMN0KnOG6ETnEm2gjPnTtX7dmzp/rqq6/qlH75+OOPqxdffDHUO8kcOXIkhBzQf6c+2JiMmrNnz7LZufXll1/WKePnwIEDt3bs2HHr0qVLdcptdu/efeuRRx6pv40W2k69b775Zp0yetArdaBjAm39888/66fdICPvoAPev//++5NlqB9TgWeW9957L5mP0EUvRiiBUgYwDqgfBTd1DLK98MIL9bfRQ7107EcffVSnjA4MEPlVtgwFI8pB+RmI165dC2nqL9IsyhsbXAqVcTf0YoQlQbEo4+TJk3VKP9DpcadZZCzq6FFBncyCFtLaZLHIsOIBqlnRMi4jnDif8P33368GCq2effbZOmX04ON8+OGH1dNPP12n3Am+4WA2rD777LM6ZXT8/fff9aeq+uuvv6off/yxVRbLzMwMllI98MADdcoy27Ztqz+NnywjpKGvvvpqtWHDhqBccerUqWrTpk3hGdA55CHkOq6jhk3IM888U39bDU6y5LO89dZbIW3nzp3h++XLl1fyElvI8+STT4bPb7zxxkp5169fD2kW5Pj666/rb8vYstnICPRFWtcmCmMbzK5B1/TLa6+9Fvpkbm6uznF3/Pbbb2HwFmF5QmwH/4MpWUsMvh4Bvyqe1lkGydP3cpgCmaibpaEJljK7nLGs0i7JTVvZVNAuPpMWL0daepp8TpHKpw0AMX4jUH/uRoZ3eY/lkzAKPWvZRQ6L0uln6uQzukvVqbbSLmK9l7MvGGoRRwEUToX4IKlOkKGmnsVI8NzQhZQWG42Fjkt1uIzQ+lZKi8tDuZTThdqXkkdlo69hNkm8p51x7AciE+nUmwv9xHsYTwz+LHVJfn1PtQm5kEc+MM8xXEKXLQztSSIEBacUCzQmp4P6AJmaOh1QkDo+BsPkmZQIMqIY2p/qtJg2I9SARlc5AxaQm7qZXTRL2wGl9ufMPgLDoU9zZZAOcwaOJiTt5JsYemMyUFrwA3FwU3z33XeNPllpcOBhamoqxBbkHnRG9fDDD9cpVfXDDz9Ug06qvy2DT8fG4KmnnqpT7g42BgODCrqKNwkp8Dn37t1bffDBB9UTTzxRzc7OVoOBUL3zzjsrfuS///4b2sDzHPDl8Su//fbbLBlA+vnnn39C3MbWrVtDvLS0FOImhjJCOuCnn34KjjHCx6AonuUqQc54buhi48aNIT5//nyIYxYWFkLHW0MTtMsOHtp3+vTpO3adV69eDfFjjz0W4hxSeWU4i4uLIe7i+++/D7E6Fubn54PRYZxsVI4ePVp9+umn9dN2qJ9A/lwD7ItsI6RT2A1+88034fvFixdDbPn1119D/Pjjj4e4C3Z0g9k4O3SB8WNkN27cqFNWQ4enZkH9s9L09HSIQca2a9euEIvff/89xDkD7ZdffgkrR9zJDObjx4+HWQ3jTw3omPvuuy/EzHaCcpnFaDM7dgZMjlzUj+F+8cUXq/IzM0oXwMCPd+v6FcAOZP0qEv9C8Mcff4T4wQcfDHEjg87NAh9Ivg1+CT4BfoT1jeQD4TfgB6R8r75p80mRjefIZ30aK7eQP0ObbVuUF79L5TT5YOgp3gShM/wwYt6jLMrnM2U3QX7Ko23qB9KQizSeESiH0Lbbpn7bb0BbeN/6r8hm08ijPYHVFc/JyzOlk0Y+0rroNEIaQ2HWoOQU0xjbAWoIoU2hfYIMyJYaANp8xHLzPTbcprbwHnml9FQ9QDp5bGeRn3dt3Rgx+TAKjKoN3lN+AmXpPStXW1kymKZgZaMN1IcOeEasQWyhLmwCPaocZEFvXW2C7JlwPYGxoYQcBfQB9ZYciOuNiTRCYMQy89iRPQ6oj3rblkNnNRNrhMDSwxLBD6njgCWJ5Us+lJOH/0cnpzgT91c0zvrDjdApjhuhUxw3Qqc4boROcdwIneK4ETrFcSN0iuNG6BTHjdApjhuhUxw3Qqc4boROcdwIneK4ETrFcSN0iuNG6BTHjdApjhuhUxw3Qqc4boROcdwIneK4ETrFmWgj5LQozoeOT5bqi3vlMh1OEeOMyhzUB62E/wI/YnToTtNhQeOg7RgQzohBvvhgn1FA2/s+BgS5aZ8OKuLcnWFOmUgdYITMqTJsHhtIj0nlI3SdydOLEaqTx30OjKD+tgORUCAd2Bc6EImO7gPahtFgjNSlk7pyB5UMS5ME71EmafERJuRNGVyKHINLMXFn0aBQlNH3+TPMRG2dkzoabhRolbHtU1psQE0gdzxTS97YiMZhhBPnE94Ll+mAPbGV45GpK/cIY053PXz4cP1tGXsM8bjpNEKcUF3+oktzBLcAkS7HU8fGEtbiZTr2jGy7eRjnZTrIh1NPoB5Buspq29hgaBjc559/Hr5zodEnn3xSnTlz5j+dPZ19tG8f1DNiI0zb+HbEZLfLC+mkWd+HZYK0vpfDFJKnbUlQO+QvsqyyFElu2kIeOe+kxcsc5dsymojzoTvq4zvpfLboVNQuVC5+Ie90yZEDSy5+YYzSiakT+dSGGJ4rP5+Jc5bnbJ9Qfofd8ZKGUFYg+RY5ipEyc0MXOb4RCqTzYmSE1v9RWlweHZ/qsBi1LyVPqtNJ6+o09Eob0HtctnRPGAYGG+U1/ZJgjU4D0+pJkKYJSXKSt6tNQ0kbF0iFcQVUnNNBfZBjhMiGjDGpmZ62kRaj2aALvZ+SJ1U2srUNXp4xgGQU5EcWKzOGwCDJRTqzk0sXMq6cXz8kYxtDbUwGCggXzAjuwHj55Zfrb8us5ct0dM9K6iKccV+ms3379hDL/8Mn3L9/f6tf9/bbb4e6uXqCfLrOY2B0K9dQEL/00kvhcxe05bnnnqsGBrjq4swuHnrooRDfvHkzxG2wb7C3kqYYyggHVr3SWJT2yiuvrFLaWr9MRzc6pXaR475MZ8uWLSHWLpeNRjygY9C5vRIWPesuFG775Dkbp5xfBmgf/YfxDWOAvVDPiFloCWEpSE35TT7UOGlbKrXkxmhJspsppcVtaVqiU3T5jpRDebg1tu4mKCvlz0om2t62nFuQLS6LZd36epSbkl/LcewGpPTO+206gKFmQt1uxKg7dOhQ+Gy5cuVKiDdv3hz+HZWROW4Y1SytKX7++eeV2Zyfm/SzimbORx99NMSgnywg1RaWMt6nPvtTiwU5WCqbYKlnyef9nNmL5ZpZj5+UtCLxrm6OYtljyQbbvhhcAH46in8+Sv2mycqmO/AAXfAb6WBA33E9G+m6w1k65n2uO2ulNsYsGGW8wghJwchgNBKa8vQNMiBjytHWTM3ItDMPozgerU1twRknL+UwkzQ59NqpUk4TzMzDzF6g2YmyCciutmimj9sXwzt6Pw52hUN2yqSdet7UZlYMZkIrG2XlrIpDGSFCpZaDtQaKQxnDdO4ood6cgUintRnLvUK2EaJYRlDbyF5L0MEMmJyfEUYJ9VEvA6ENZpOuPPcKrUaIwcnwiMfdof8VlgK7XPUNG4y2JYiBwTPypZz4e5VWI5Rfsx4NcC2Ci1DSX16r+I1OTnEm7k+5nPWHG6FTHDdCpzhuhE5x3Aid4rgROsVxI3SK40boFMeN0CmOG6FTHDdCpzhuhE5x3Aid4rgROsVxI3SK40boFMeN0CmOG6FTHDdCpzhuhE5x3Aid4rgROsVxI3SKM9FGyOlTHHw+rtPB7oUbndBnTvs4lWtT5q1PQx2IlAsnDFB0yXNr2s6i4UQJTkPoA475yDmL5m7gPCB7KtfdnObAqRocVcK7lEFZqTLUh6kQgz5T+UjPoRcjpHIaWQp1VNOpXCjIHoE2anQqlw4RHxUMLMrVWTcylNRRbSmUnwGCjAT0QFpsiMqbA/2da3ApejHCkjD7ory+D0FqmkGEzvEZ5WogA7KkDKgJ8sVH+0lfsRGN0wgnziccx41OnLU96LyVk2tT4BsOZq2R3+hkDyGXb9Ymh2Vubq5aXFysvy0Tn7ZagmwjTB1kriCabkwaJ2xCmm4P0C1NVmYcaKVzDC9wS5Juq7I3U5GXNG5yAm524rs9zNySutGJ4315JxVsXSkGs01oH3JQzuuvvx5O3p+ZmalzDI+OFC5qjPWM2AlZ7Zl6LHekxUsBywXpTf5Yn7AJSclkYTmyS5I2L5KbZVS+nPylGJaeeFlLoSXN6gK94dfZDVNuefiClKc2jOK4PskYuw1Kp8+JCeijbaNHTD7ax3u5NjCUEUpQCqciKo3RrjQHCZ0TUnXFqJPkuKdAWamdK2m0yT6TYcZIyV2oI608pBGE9JXTYbyH/JRpy8AwkKmr7TG8xzupjQ2DBZ2rzymXOgixrMhijY5BTLk5fQbZRmjRFj8ePYCScjqoD7qMEHmblI4hILsFJcaKbOu4GDqnTR701KTHGGusmqHt5ou6KCsXTSTD9BVtpt6cXT/lkjdnth56Y4K/hJ/z7rvv3uFH6DKd/3rbUV/oMp2pqakQC3wsrmYYdG6dskzqMp0LFy6EOC5jWPDtCNzO2eWPkY/rGdA7lxcdO3Ys3D61b9++lesrlpaWqkHHh89dyA9m88RlPLnoOlrq6mKYW5+GMkKEp+GD2aGanZ2tU2/TdmNSCrtR6Ark7aLrRqeFhYWwY407Xbc0TU9PhxgYbBDvPOn0VBltxPrAqPbu3VudOHEi6/ar48ePh1h1Yohc6QbPP/982ARyR8vBgwdDWhe662R+fj7ExalnxCxSyzBLmJabJh9qnLQtMSxnKT9Fy6b1dZQWk1qim0Bf8RKfWs6Rt+13TS1tsS8m94PQtOTHsJTGfQhWTpUb59FybGVHT3EbQTLnuBrZFiNn0ypLaVIAnYNAKAshcgQYNdSbUgogq+TCQITkttiOt22xbaTdbQZJZ9uNjjYQthPRJ/W0+U4yCuqSHMQyAJ7JX6RsW76F53H9IBmE6qNM1Uca75Jm0WBFR5QPsgvb9jayjRABKDgVZIRqDIppG9l9gtKQIdURmqnpTNvppKFES1NbKFe6wJDV9hjykUedCDKYVOgCGTAA5eczBgCSiaC0FDKYVOBdgTFhSOhJz5Gd92Vogvah11i2lP6byDbC9QRKQWmxwsaFZpw2g3BuM5FGCMxsjMicnwhGCfVRb+5S5EywEQJLJUvKuFwDlrC2JdpJ45fpOMWZ6L+sdtYHboROcdwIneK4ETqFqar/A00r1LyXvnaOAAAAAElFTkSuQmCC;" vertex="1" parent="WIyWlLk6GJQsqaUBKTNV-1">
          <mxGeometry x="128.14" y="126.5" width="113.73" height="77" as="geometry" />
        </mxCell>
        <mxCell id="xW0SYJLAr49xiK4sMMPl-52" value="" style="shape=image;verticalLabelPosition=bottom;labelBackgroundColor=default;verticalAlign=top;aspect=fixed;imageAspect=0;image=data:image/png,iVBORw0KGgoAAAANSUhEUgAAAIsAAABtCAYAAACRBJJgAAAAAXNSR0IArs4c6QAAAARnQU1BAACxjwv8YQUAAAAJcEhZcwAADsMAAA7DAcdvqGQAAAwcSURBVHhe7Z27ixVNE4fHLzfwEimCaCQigldQMRC8YGSmkYkmambg3cwLimC2KBiIib6IKIKyGih4A68oKiYqYmCkqPgH+J6nd+rb3j7dPXXOzswe3q0HmtnTO6e7p/rX1TXjTjnlb4fCMBT8rzwaRiUmFkONiaVhHj16VGzatKm4cuVKWdMs58+fL7Zt2+b6rR1ilro4derU3/nz5xMDufL69evyN5OTXbt2/V22bFnUDtiH3zfBw4cPXb+HDh0qa+qhNrFw4Qjl06dPf79//+6MwXGyIgsnZgMmE/ucO3eurKkf+p02bVqtfdQiFrn4y5cvlzWTGxYM9rh161ZZUz/SB7ZPwXxwDufWwbjFgoK3bt3qBjWZPYmPeNmm8G1eBd6lru2oqzf2140bN7qB+C4Mt0qd7z3Eo4Qlp/amwIBMEv1jSIHVjcGaig9i5PoTG2FjgbGLzWViGbfEf9heoF7a8EuqP2wRClfaZpwyV74AU56oSyx0KoanMUAgOXW2PRkxEDYXLq4X0VMwANfTFvRJ//4E+zAWfu/bU4Jg6vgd1yALNeVBwjZSyCIXG8jcAoKRhUVd1baZ9GOiYAYuDcYQ4/geR4NchLZokcmgfVZrm0IB8bYp75qLZ5h8Fp4vAhGQTy82FzvHxiP90U5K3D7JWRCjo76cwemI87iAQYGV6rvYKmQL0BR/+4hRJRaxV8zVM+5wy6C/sE+8TqqNkJxYxCHknIFP8qHcjBkzio7Biw0bNrifUzx48MAdFy9e7I6DQMfgxfTp04s1a9aUNXmGh4dZNKrCueMBezG+efPmlTUj/Pjxo3jx4kXRmbiyZoQ7d+4U69atKz+NcP/+/WgbvTJ79mx33LJliztWkRSLPHF8/vy5O6a4e/du0VF++UnP6dOniylTpqiLljdv3jijd1adm4C2mTp1qjs+efLEHUOwV8eDlJ9G+fDhgzuuXr3aHeH27dvuuGrVKncUuL5YGzkWLFhQ/jQKT3txCG/fvi1r8kTFgsFv3LhRDA0NuYGljE49kxIqX8O+ffuiKzdVNDCe/fv3F9euXXOfnz596o5tgodlAr58+VLWjCL2WrJkSVkziohr5cqV7gjv3r1zx9BDptqI8erVK+eFwt0BZzB37lz3TwMIWEVnIsZAfMIeyVECKfZIfg6DINnzqqLotiCil72ZmIW9mOto+06N/sLYAySeIW7hZz+Qxebhd2iH8+UaJEahTuIM2spdH3bw+wHmUr4v8Q91ckeZYoxYJMDyg1UapTEGFAa6EqnLRUwUflQviBGYBP962gB70Lc/HgEbx+wpdT6yGJkTf0GK3blmX0QhYTBNf3wWZyB1tE9bVXdEXZ6lF2KrwRiBCcU24QJrC/rVCKAX+haLqDR0ccYorHo8Sduejf7ot+656VssGALlTvQWNOgQA+CB24rr2H4JHXKxR7/0/De4RPQzZ850t24XLlwYqOcrRrPYH2wbauzPKg01JhZDjYnFUGNiMdSYWAw1JhZDjYnFUGNiMdSYWAw1JhZDjYnFUGNiMdSYWAw1JhZDjYnFUGNiMdSYWAw1JhZDjYnFUGNiMdSYWAw1JhZDjYmlQf5TCZOB94bqgDfu5KVvCm/GTWZyr6762RTqhrabeHUVahGLvK0vr0wy2EFJwzER8DJ67qV4Sd3V1DvQ8lJ83Qt23GKRgYXpIiYrkm6j6cUiCzRFmG6jDsYtFlklk9mT+LBomk5DggDogxfuc7CI69yOxoiFxpl4ingKXKVf77tOqfNLnflAtODdMBz9hx4Oo1JfZdi6yHlZiVVCO+EF+B4FIXA9tMF5jN/3Dky+tOGXWPxDNoVQuMyf2MT/jnhESmoOx4hFvhAaVi4ytgfGBtQ2GBAjiCF941KfGnvdSF+5BYMH5hzxxEwYwkAg1HMNfOYaUu3JfFR5c77HebQtMF98Jq4M5w0bcT79xujahmgMhftwQSlB5FZSDgalLTnj+4gR/RVDHWP0DdYU0j/HFIyNc8LxiFiws4hd6sLrl0n1F0UMEUtsPPI7vw3qch646znL9u3bi58/f/4/rSZcvHixOHbsWPlplM+fP7tz+8nR0ulbXchsqUGyOn79+tUd4f3798WBAweyuXxjqVRThZSs40Hy4Ibjkcya2Fny20q60zC1aR15cKXNb9++uSOQ2fLIkSPlp266xLJ582aXmvPSpUvuM2lOnz175h72hFAPCxcudMdBoONei3v37pWfCpdwaMeOHeWnODGBpopWuClII0oi6pDHjx+74/r1690RJN1pmNo01UYvSF5c6YOF/+vXr2yi6egT3M62Uvzzzz8uyxNPBVmZMSS7tjaTtU9s1aZKL6uZFce4gSenO3fuzHqVOqlKmMyEdNx+1BO/fPnSCd0f69WrV7sSUvfjzWMJk+kHp/D792/3+cyZM0VnG3I/J+msli7Yx/gVwVZuvydIausuQ4vsxYyZ+KttcjGcBLexGELs7UMd1+OjiYuEqpsP5o4iNwdVRD0LeyEqP3HihPMysZXJ6iX79tKlS8uawUD24j179hQHDx50P7dJLmO1ZMyeNWuW89jyb0bybzmLFi1yR8CDCPz+8OHD5acRiMWYA7wubcVgHB3BlJ+6ITP6x48fi5MnTxZ79+4tazOUoulCovZUxC2rxL/zGARSdxBtIV45Zhd+h+eh+OMTbxjaGs9NPZ5KvDtHvAH1eA2+G/P8VfMHOU8XIykWBpG7JU5d4ETDeDDyRIJLZyJjk9gG9BsKMgaC0mw/whixMPkgneWEwIRM9KSEyKobBAGz0LBP6gFXU9Af/VaJgPN6jTe7xEInVZ2Ji6t6gtgGCEMEIsHaoIB7Z0xt2YmHdQS1qW2FecPbyLh69XxjxII3EcGkGkJIuNjYnjwRiHAHTSiDCN4OW/kxUC9Y0mRDjf1ZpaHGxGKoMbEYakwshhoTi6HGxGKoMbEYakwshhoTi6HGxGKoMbEYakwshhoTi6HGxGKoMbEYakwshhoTi6HGxGKoMbEYakwshhoTi6HGxGKoMbEYakwsDWIZtjPwmiZvLNIspY2kf4NK7l1n3p7M5U0ZD7yaqnnXuR9qE4u8Rirv2TLgQXgXeiLgfeJcFgXs1GSiIfrlVeS6F2stYpHB5VJ0TBZ4QR8xNL1QsDUeKoUs3jozStQiFsnVMlk9iQ+T2NQWI+C9sXdV/hUWcJ3bUVQsMvmxEg5Qc05bSH7YWEmloaibnIfFE8h4fJhQ6ti6QXKnUBd6Dz8m9EvMg8RyytF27PuUqnlLioWL9oMzBkldbB+uSnTXFhidccoYZXtsItiLIRORMzrjE1EAwmLLwCvzXQTPeBm7iD8UOu1TH5sLn9h59BPOLYL0x5QieevMLZikzyTJHckGb968GU1G2G9e1lga01TRpDclPejZs2fdGEnOx20r13H8+PHyjGb58+ePO4ZJjn1IS+rbamhoaEyO4evXr7vxcg1z5swpa8dCcuPO4ozORQxJvgwkQSRVrczt7t27na2Gh4fd5yylaJLIakmtTgnoBuk2mZUUruAUsvq0JYfEEqktT2wVS4QkW5G/ncjYQnJbnY98PzUe2qAtbRBc+VCOpMOoOJX6chCzbB89etQdNauFjNkdO6jLeBBbrVixwh198M4dcY9JsU6m8M4WUX4agYzneKe1a9eWNf3Bg0IKqd3Vad07BkhSpUxAnRXNJOF72sJYNMhqqdrPm6AqZpGxxeB7vvdm/LG25JbYjzlSyPyFtgifiWlJznJs+6GTWHQe1k0UbIVh8Ebg3aZwcltEylayffmPHqQunFARgIbc3ZC/FTJezWOPaK8Yl078PV/q/IsV9afimTbh4kOhMK7USm4KDB9OkICt+D0xgv8EVwTgxw7+6mcRyOTKuVyntONfsw/X7s8N51HnC0XuwlJt+ETFIrdsseKLRTryO58IMFo4Tiltez0ZS8wmTJyMyZ8cPocCox0mluJvRXyPc2mHxZyyPfWc4wtQvhcrGnRnJYitCGNEFExMm9ufD/2GIquDcYkFZftblTEK2w220bj3OqE/+m0iNOhbLOLmNIHRZIV4gy2mLRsRPhDDhEFxXfSVNHn58uXuXp//os1/+mj8t7EM24Ya+7NKQ42JxVBjYjHUmFgMJUXxLzoUkhEwrFueAAAAAElFTkSuQmCC;" vertex="1" parent="WIyWlLk6GJQsqaUBKTNV-1">
          <mxGeometry x="264.79" y="124.5" width="103.29" height="81" as="geometry" />
        </mxCell>
        <mxCell id="xW0SYJLAr49xiK4sMMPl-56" value="" style="shape=image;verticalLabelPosition=bottom;labelBackgroundColor=default;verticalAlign=top;aspect=fixed;imageAspect=0;image=data:image/png,iVBORw0KGgoAAAANSUhEUgAAAIIAAABwCAYAAADSWajvAAAAAXNSR0IArs4c6QAAAARnQU1BAACxjwv8YQUAAAAJcEhZcwAADsMAAA7DAcdvqGQAAA00SURBVHhe7Zzbq4/ZH8cfv3vJ4YqaZNyIUg5DzCjKIblQpiguXGjKkJorYdyhHJopIURJaUZNccE0KBcOU5hELrgwkuTKofwDfs/r43nvWXt5Duv57u/e9nf7vOpp7e/6ruNnvdfh+7A+oz7kZM4Xz/+K0PnCcSE4hgvBMVwIQ8itW7eyFStWZL///nsR031OnDiRrVu3zupqBYfFkcD+/fs/fP311xx87Xnw4EHxzcC4efNmX5nU0SmbN2/+MGfOnK61i3LWrl3b1zb+FrSZunbu3FnENDMihICREcG///774fXr12YYwm5x+fJlKxMDd4JE2q02IYKxY8f2CZMBjwedukhz/PjxIqaenheCZuxvv/1WxHQfyqaOTkCc5EVM3WL58uUmrCbUbtrQRE8LAdVreezmChCjZb0TtFp1Cwk/ddlnVUhJ2ygEliGMQOXxMsPSlKq4bhPu3eFTtnwjEoyBUUjDjGK2hPuqoC/h3ks+BrLMmJQbnk0I45lPnYihCvKThrwSs2weC4h2q116iKuDvsTllFErBIxCg2ggYVxpaiWDSZOh1XYeiQRBY8Q4n/Ze+iVxSxTxAPM9fccm/E09+iwoj7zay2P4nu/ITzraRTkqswy1ver7GE1WiayK5K2BTmKUkKZBEFWzt+opm9VlyNB15wNmMmlCw6k9cT7NwtBoMmRseAaL9CF8Dm2kelL6o7zYsy49adpMPrW/qQ1J7xGePXuW5YbIFi9eXMR8jHv37l02c+bMIqaab7/9FsElP6RP4fHjxxZOmzbNwpg3b95k+/bty3LjZlOmTClis+z9+/cWfvPNNxbCn3/+mf3zzz/Znj17svHjxxexWfb8+fMsN3y//KS9cuVK9uuvv1od/Gbntzs22rFjR5GqHcuWLcuuXr2aTZ48ubb/tDEXTfGpeyQJ4e7duxbOnz/fQiiLG2pu3LhhYZUYr127ZuGqVassFJcuXfpkcImDpUuXWigYHAYpRGm/++67bMKECSYeymOQUiZGGV999ZVNrO+//76I+RRNyFmzZhUx3SNJCBg83wb6dfLMmTMWpnScGTNq1KjkJ/WtGIOUL9HFp0958eKFhZMmTbIQmMG82YsHFyPTx3A1oB0YPu4jaZmVWsH++uuvbO/evf2EBaNHj7bw77//trAK2nThwgX7+8mTJxaWocm3YMECC9tQtWqKJCHcu3ev3zLKa8ynT5/WDkLIYGwNGI9BWrJkSRFTjQYEfvnll8otbdy4ccVfH8tnpsP06dMtrIP0bA8h1IG42F7q2L17d/bzzz/bqnL79u0i9lMePXpkYerWCffv37dyQ4GXkSQEDEdHgdn08OHDbOrUqfaZ2REbYCi4c+eOhTNmzLCwDJZbYIug/T/++GO2cOFCixszZozN+F27dtlnZjPCom/0af369dnGjRvtu4kTJ5r49W8EiI9tQCsXIf+GsHr1avscgm1YuaqgTJ0LWGXOnz/f11bZXFBO2/MBefIDZvGphnwGNsLpml8IPPoppNMop2dO70NN2a+BMjiFky6fFX0/ATmhE8d3+oVAqHj1ibLV7/gdiupX+qpTOWWQJv6FotfW4fsJyqCusK2C9pE+5VeaoE7yNNkIkoQwHMH4GKwXYLBpa9Nv+ToQSZmgqqCucOI20ZNC0OwIZ9Nwh5nMitPp6qkVKEVM1EFdbezTk0LAqKg9ZckbTjCrWcniZb8JBpb+pgwsWxgvnZpeIMX0lBC0EgxkZvUaDH6qCAaC/y9mx0j6+eiMfFwIjuFCcAwXgmO4EBzDheAYLgTHcCE4hgvBMVwIjuFCcAwXgmO4EBzDheAYLgTHcCE4hgvBMVwIjuFCcAwXgmO4EBzDheAYLgTHcCEMIbo17Z5XBwluPXHNi+7w8He34Iqayh0IA737GFPXZ667fRF3H0N0L1C3ful8t6+HYVQE0Sm0baC3oUNS+qzb0PF1/ip6XghDcT2e8lOvl8fIP0Lbi691pPb5i/CPAPIZ0O0VIGSgA8mW0E2htu1z6gXaJCEwGygwXN5YnvjcbbWnEu7deqqWb+2ZpNGSygCVXR1nKVW/CDEif5ct6+RvOptQH3WVobJpW1g+6VVmSJs+C9qUIsRGIdBYOozxqBgB0GgqIKQTnS6bAyXFC6mWR9pIe3k00HE+BoCBk1cS+ko6+hijyaE9WG0JxaX8ZfahDh4mEWlUJ6iNZcJK6XOIxo0y60jeGlRgDEZqWhHKlFz1NCk8pEntGKtsRlJHnE8DooEVxMX5GWziw34rP4MvlC4URxlldVTlS53hQuPW2IYibKTMeBi6TaO6DXWXzRqhpTeePYg3NjxxZf0jfzhbgbQSLAPP92WCSxUCZYUTgDLDzyFNfY5JFULyCyVcvcmlnvjjjz/6fBEONSleSHFVlw9aP0eY5MM13qJFi4qY/+JyAxcxH5GDy9DHpNLighfnoGvWrMkuXryYHTt2zJ5OmD17tpUneCmE38WYlD53SrIQ6Hzo3BJ/hNevX0/yscjbtNi7atVD2hRSvJBitHwGFZ8+gnghHNxXr15ZKL+MAu+y+UzvJySlzbcCVlNzPMqbwjI7pHpeVb1MNgb77du3pU41P7vn1djxIyLYvn17du7cuSKmHlzUYrSUh7QppHohDb2p0u6TJ09+MrgCJ5yCwcXwoWDqYBbjrDsk1fOqPLviZPzQoUPmSLyMz+559eXLl8VfHz2TSwRNhQ8mKV5IMQDpEDLv3mn3Dz/8YOIgDu+mzEA8qwJLPDCoGB0RIBjSaMYzsxjcs2fPWhk8Bw4cyE6dOpXNmzfP0oQ0eV4FDeyRI0dMPGUihc/ueRU4pHAg4vDR9FNksKF+mh4fzmI4dNFmpSWfTvf0Jzz1c+AjXn0EHTY5uIUHTsolf5i+yiZVB86Y8ABaRmqfQ9SnsO1VJAthOKHTeJNxhwsICuHUTSCEUDdgbftMXaGom+hJIWim1hl2uMFMZrDD9wyC78LVqYw2faYO6iJPKj0nBC33bTo5XGBWs/wz6FohEEHTLG/TZ16I8Z6h6b1BTE8JAUP0qghCdG6IzyllDFWf3fOqY/h/VXMMF4JjuBAcw4XgGC4Ex3AhOIYLwTFcCI7hQnAMF4JjuBAcw4XgGC4Ex3AhOIYLwTFcCI7hQnAMF4JjuBAcw4XgGC4Ex3AhOIYLwTFcCJ+BwfbA2pH3VbvmMoLg5hD3/ugaT+wTqVN0CZUn9WJpGXV3INtCGVxvU7tClzq0t839xxElBF0D170/DNF0pawNlBWW3xYE1HQrOhXdhwyv8MeDrhvRKZNhxAhBnW7jP6AtElon6L5jt4TJZVpE1YTa3OQjYcScEU6fPp29e/cuW7VqVRHTfW7cuNHaY4nAJU4+cNnKlSuLmM5h78f5VoonFM4K+QQx+9RSCKIUvuaJ90TUGHr34HulTfHO0W1Ud/hU7eMsk8wk0hAyY9hCYuhHuP+y7JK+as9VOaQNl2zRtFqFdYUP+cKtBLvHacKxKIOym1aPWiGwD5VVRONi4/G5qbLBJKWzDARtZ9BA/Yvzaf+lTAlbA1W2tGMfytDZQWmF6qkSJ2C/UCg6nJbVh5j5LnXSaaLWnU0aNzwKCIWgAxNPCB2RgatQ51KfNoeyphmndsdtJC7OJ1GHhpMxY+MTT91hPKsGcUL9rusP6VWfhFhlzxTRh6jtdfU3CgERhELg71jxGKFNw7oN9dOeutNx2YqF4ckXGrxKMIilKr9mOoaW0cP8KUIQEkHVFgS0gzFIJUUISYdFnEoChxT+3rp1q33G7Rzkjc4OHz5sf38O5IhS/gpjaGeZZ9Vr165ZGPpSvHTpkoVLly61UOCmbtmyZcWnjyg/bvtwFvrTTz+ZT8Xc4KUOOJvAVd+mTZss7969e4vY/tCXXPhd977aKATcw1Ix0FG8kQq8kMrJZMppGCHFnlbrntQ3Y5zmocoRZZ1n1Xx2feKiN5+R/XxI0g5sgA/EkBcvXliYrwwsj9m9e/fMDW/cjhQPrIiAt43UW+fKd7C8rzYKQd5IeW2J0eikCnz//n22bdu27OjRo/a5CfJisNSnamBjGIB8yyo+VVPmWTXfMoqY/xgXeGtlgORvumrFiZEjT5HigXXLli0Wypst+efOnWt/hwyW99VkIRw8eLBvwFXghg0bbEv4nB5YGSiWfVauKuo8qzLoGF1LOasDsx93vcSvX78+27hxo31HOeTVvxFoVuo3elxOCPFVHlgRDnXifhhb0ifiGLyYQfO+ms+8WnTQiX/GcKCpO6UPFVWHuxi+Jx3t1uGOAxlxHIA5pAEHQA6WYXw+SJaPJz6QUi7xpOcQV9UOyihrp9pV9qidQofTNnZX+dRfR6MQhjs6ETd1dDiA8BALA9oJmpRVYouhnlD4dfS8EJi9PL0Cs5n2agVqg1awFCFRPvXU/QwN6WkhaNmLt63hDjObbadNu1PeLwi2L94z1L03iOlZIaD2uj15JMHgp4qgU9zzqmOMmH+GdgaGC8ExXAiO4UJwDBeCk5Nl/wc2comV55hO7AAAAABJRU5ErkJggg==;" vertex="1" parent="WIyWlLk6GJQsqaUBKTNV-1">
          <mxGeometry x="410.12" y="123" width="97.5" height="84" as="geometry" />
        </mxCell>
        <mxCell id="xW0SYJLAr49xiK4sMMPl-59" value="" style="shape=image;verticalLabelPosition=bottom;labelBackgroundColor=default;verticalAlign=top;aspect=fixed;imageAspect=0;image=data:image/png,iVBORw0KGgoAAAANSUhEUgAAANcAAAAZCAYAAACin7txAAAAAXNSR0IArs4c6QAAAARnQU1BAACxjwv8YQUAAAAJcEhZcwAADsMAAA7DAcdvqGQAAAeGSURBVHhe7Zy7r01PFMfn/noRV+eRCBpRSAQR0VAgKipEo6VUKDwqEiEqjUeik6BTIKL0KDxDSCgQUaiIP8Fvf+bM113WnTlnznXOkZ/ffJKdfffaM7Nm1mNm9pww9aMjNBqNkfNPujcajRHTkqvRGBMtuRqNMdGSq5Hl4cOHYceOHeH69etJ8v/m0qVLYe/evdEu1XCgkYNXXNu3b0+SyYA+6f6bOHPmzM9xPXjwIEnHD7qklz7UcPDgwR/r1q378fLlyyQZHum9du1akoweYmXFihXpabTIXx8+fEiS3piwy9GjR5OkP8UI/vr161AOGSUMYNJJPQlwCjadNLdv3456a5IafxOw+P93UHD+ToIOgvb37NmTnkYL8bdgwYL0NAN2QX7x4sUkKVP0NEapdcioofN/IqnHDYHwJyYNAqEmqZmlKUcyNsqwGmMnu6rlKH5zvX37NnRBHjZv3pwkk+Hjx4/h+/fvoQvCJPl7ePbsWdi9e3d6mhyvXr0KXWKnpzLnzp0L3aoVdu7cmSSNHHx7kRtXrlxJkjzF5Lp//37Ytm1bDHY+bKempsL69evDt2/fUokZKINCynAdOnQofgCePXs2leiBk2lD5VauXBmOHTuW3vZ48uRJ7PiSJUviO8pNT0/Huh76gg7aUXt37txJb3vU6JwE2Kib6cLGjRujbRgT/SkdGFDGjotyjMPDWNQWF77ytrp3717YsmVL/BhXm/jIgw58XgJbo4s2FAeyLzJAh/ri/d8P2lHfrE2wm29P8cg1DOhQPX+pbe6S9Tu8wE43btxITwXSCjYL9t182LKNYfnTvt3vNdk+so1jy6Nlkr8paz9mtVelTT3nvq2kk4stqb79/N4aXfRR/aOcnkWtzkmALdQX2ZC+IPNQBrnspy0647Owdaacvmu0XbFbeWyDjO892sUG+vaz30PSUdqO8553ao8x0Jbsb1GsDLO9xL/yjx+ntrW2v5TjGgb6Y+0F9N+3I/vQnxL6puxXJptcMiBKVRmHIbMJAzljSLE1uupbxzNYf/JCW94A1FOCiJxReLZJWKvTo3q1l22/hBLGTk6MwdtOgentjCxnAy6L9Rko4WzdWv+UkJ1pM1deOvsFXolc35D5cWK3QX700A6XoP/eXiB5P9TPfvbKJpcczF3IYHbQpUBg0D5olLB0vGR05JSxRlM9q0N6GRh1uONsn5Q1OicFzvIOw0b0zUIZbzvZxduZuoy5n4OxJXXt+KnnddCGbDoI2kSvDVRLrv1acv3At/Y5FxPDItvZeBY5v3jmnFwyniVnMGTecVDqnBKU9zZxhZLGJojqWCNIry5mNfqcM9QgnZNAyWFXrVyASGYnF8jZAGiXZOQdNvF+AN7b1Rxy/skFdQlt03L2hpL/a5CtlLjo8KtWyR61UN9PxEI+sH7JMefkqnUIg/ZJKCeVOseAqEcZH+y1SU19vwr0o5/OHBpD7TUoIGsnDem1SQj03dvAgqOxm7dJbVIDfUNeWo0Ebfazpdr3YxgGxqIJBv/7JEDm46QW2b3kM733Oj1KrtyEJmadFnIKxJHx2rVrk2TmpGvNmjVJMsP09HT6q1f31KlT8e9Vq1bFO9iTQ9q4e/du6AIhnD9/PsoEp1obNmxITz2QUXYQ6ObEUtTqzMHPD51tqq9BP1c8evQo3q39OI3tAiQsX748SWaYP39++qt3gscJqreBtfuRI0fC1atXo9/sCdfjx4/jffXq1fEOtAXWP0Df6M+nT5+SJM+JEyfC8ePH45G9xmV59+5dvFudw0IMPH/+PJ7u0Scfd0+fPp0VJzXQ3r59+0KXQD99xqmpPWF+/fp1vHudnhcvXkQbLFy4MElmMyu5+H0LNm3aFO/w5cuXeF+6dGnsiI6yCQySjk6TgPv37w8HDhyI7+bNmxcDnODg/eXLl2MZIACot3Xr1vgsCA4voxyDoA0lD2VsIHHneHbXrl3xGWp1TgICpZvt01MP+sW4NCnwvGjRovju5s2b8Y79cDaBRDJRRmX5LVCTB23cunUrBqJNmjdv3sS7Tf7Pnz/HOz91UN8ee9M2k1kJyi5btiy2R7JzFI1uApQ7SCdjkf8FPsr9nODBR+/fvw+nT58Ohw8fTtIZ8D2xJ3sIfMwRuv85BogHfo4gsVSHchcuXAiLFy+Oz4Cv5BfGhY4c2Knb3aWnAt3M+wu55Y6/O2NGOcu13lk5WwWW0i6A45LNpS0GS622Elxd539pB7Ql8lsNtgBqn7YF9dUe7/wyX6NzUqBf2xyh7Qf9sn2X3NpPY7U21nYZud55GyDDPxbqyz9+60a7tEUfLNrW2jGgizbog/VZzv+C/iAfhPT58QhvD0F55LktqbWVvyzS7cdlkY9sPOaYlVyN/zcELoE1jkmIZPDf8jkIXj8Z1aDkGvS99Dtgl9zEkaMlV2MWrIqseKMMUoKSwC+tRgKdJOFcICHnWrcG+oZdahO/JVcjC0lAoJa2RsPCTO+3mwI576VzLqsmdeZatwa2mv73tkG0/6Cm8cfh4ICDhW7FDCdPnux7AvdfoiVXozEm2j/zbzTGREuuRmMshPAvXyacQewTSq4AAAAASUVORK5CYII=;" vertex="1" parent="WIyWlLk6GJQsqaUBKTNV-1">
          <mxGeometry x="363.90000000000003" y="233.5" width="154.8" height="18" as="geometry" />
        </mxCell>
        <mxCell id="xW0SYJLAr49xiK4sMMPl-62" value="" style="shape=image;verticalLabelPosition=bottom;labelBackgroundColor=default;verticalAlign=top;aspect=fixed;imageAspect=0;image=data:image/png,iVBORw0KGgoAAAANSUhEUgAAASgAAABGCAYAAAB/jgmHAAAAAXNSR0IArs4c6QAAAARnQU1BAACxjwv8YQUAAAAJcEhZcwAADsMAAA7DAcdvqGQAABl6SURBVHhe7Z3Jyx3F94fb316N0ZXKF9EsFA1C4oQTKDhnIxEV3AhK4hAEXRjisNOIElyIOAQDIo6omIWzoGBUcERRiOCAuHClMZI/IL/71NufeN7zVnVX39tv306sB/rt91ZXV50659Sp6r7dtw7bP6EqFAqFEfJ/9b5QKBRGRwlQhUJhtJQANWc++eST6vLLL69efvnlOqVQWD6efvrp6vrrrw9+d1DAPahZ+PPPP/c//PDD+y+77LI6pSBQL1tKN7feeuv+M844Y/+3335bpyywa9euA+ei26GYV73z4K233gq6V3ufeuqp+sjyMWSd9Ev866ijjgp1sRfYGTnuueeeOmW8zBSgULAUUALUUnASdBPr7KSddNJJIU8MnJlzcaYhmVe9Q/LSSy8taiOdlXYvJ0PWiU9R/nXXXRf+V2C0kE7fHSIwz8LUAYroq8bR+BKglvLLL79EO7vSmxwU3ZJnaOZV71CoYzK7GIqh62Tww4b4WRMKmm355snU96AefPDBauPGjeH/o48+OuwLi/niiy/C/pRTTgl7sW3btmoye6quvPLKOmUp3333XTUZAetPwzGveodix44d1d9//12tW7euTll+hqzz119/rbZv315NJg3ViSeeWKfG4V7UJHAG+UZLHagOQPQl2tvLD+6RMEsiLQazp7HMoJCVqS1Nox3M9Bi5dJlFm5CV47oGZyZD20hjVLEwo9Ax9hz302WgXMqjTvJSB3LE8uaMptRF3cy+VH/qnFwZSVc+NvL49napl5GXY2oz5fnRGL3IHmzk5bN8axYog/oplzIF9ozpWDLYLXb5ncL6ji9buvL9wNalrUudoFltbLOzc82c/NYEekP2sbJIejo3jdQlCIqRUZqmgRz3hpkHyC/HRG7rUDIkn8mnYMKeTkpe8tl2qvOpE3MeebxBOZfOyaZ65FQKgkJlNDmp9M+5agv/k8b5llwZkYt0m4/zrBxd6lUQ4Dj5Uu1C3+iFPEC55OsDBVLaJBnZmgLgLB2StlK+dGJ9Re1HJs+sQYD6rA7ZS/ceySE7t6GgltLXvEl6CgpBsTiUjdIxugYoKSV3ywUn8HKoLg/G9R3UQgfkPG9o0tCJRQ6LcwgfEITSm3SqDmfrUTtsp+giY0wPyE0ZIrfeWAchjXy+g5JmdUw+fKtPVDf1YP+mzobcXjddidmWNMqO1T1rnbRJ/iL9pcrTwGjt1YTs2+SP8yTZ+9s6sKVrgFoO1LlshwPkinUI0ppGtdhxdQTrmErzDiN5vKPIuZscQgHPOjvle3lyZQTJExvhRW698g3y0T50jixs9lzgXNJzO8y0UAcyNekVGdp0kAvl2L5BmbG+0med6FZ6ToG90EMuYw9QyZvk//vf/8KNvWuuuaZOGTc7d+4Me3/jmRvVl156af1pgb/++qv66quvqg0bNtQpi+FGI8cnM8g6ZYEPPvgg7M8666ywB6X5G6Aff/xxuBHedqMyxvvvvx/qtl8+kGbb0UVG4IboxHmrW265JTwYys1wT0698MorrwTfOOaYY8LN2Mcee6y6+eabq3fffXfJFyavv/56NemkId8jjzxSp/7L22+/Xa1atao67LDDknLlgK5XrlxZnX/++XXKUvSlxamnnhr2s0B7Pvzww/pTVT3zzDPVTTfdVH/6lz7rvP/++8MePafAXt72BzPRAEUHfuONN8L/P/74Y9j3CY6KQ+ZuOezdu7eazJbqTwvwdDYdafXq1XXKArt37w77c889N+w9f/zxR9gTpC3PPvvskqDz+++/h/1xxx0X9oD+qBsn9hx++OFh/9lnn4W9R8HzoosuqlMWghGd/MILL6xTuskonnjiiWoy26l+/vnnUD7litx6gbTJLIrZd7Vnz57QYfhGN/Zt7umnn1799NNPIUBu3ry5uvfee+sjC+VfddVVIcBNZgfVihUrqvXr19dH8yGoITty0Y4UDBrQFMRyQceqC1sToGPt76vO2267LdQTGwSE7HXxxRfXKfn4b5rHQjRAEanvu+++YIRPP/20Tu2Pu+++Ozh37jYNOA9tAK98BYc2oxx55JH1fwtOyGgYCzqgwAOPPvpoCIxr1qypU/6FDjuZgle//fZbnbKYzz//POztiJt6XAFyZLSvNjDDpA7ke+2110IadK3XQ5CwwYfPzIiADkVwJKht3bo1pAH1IysykWfTpk2hg3WZRWFnAh8zNVA7Ynz55ZdLBrFpwbYERepn9q5Hbjx91MnrKdj2o48+OhCcmHX6YKzJRGrgjfHNN9+Efp4KevNmSYBCESeccEKI+DgP03kUQQT3CgHSGJHfe++96PGhYPRFBkYRNoKsLuEICham5k1GOfbYY8Nel404yPfffx+mzlxGUD6dHjSD4dJKejrvvPNCGscIDLbjAucyFY/xww8/hL0dcTVLO/7448PsExt1kZGO9Pjjjx+wjwKTdeTceoEOh19QB5DOzOfaa68Nn4FZKvZQYCQvbbadFTtYGygQ7tu3L+yBIHfmmWfWn5aiwVSB/7nnnjtgBwtp6GHt2rV1ShzN7tt8Wbq7/fbbqy1btoT/PX3UiW4pn+AkP8afmLl6/9VkImdAEbqsHy2TGUpA3whxA1Rw44wbbpPOvOTmMzddJ84WzrEbaf4G7RDwDRpyIsNE4eGGInvk8ZDH39T26KYy7dfNT91Epkz7jR1lkW71NAnuIY1z/I3jySwhHIvpibI510JdyMFmb7bmykia5GHjf3/Ttku9tIf8Ko/20yYLvoP+OZc87Pls81EGm4W89oYtxznXQ5tItzpERs7nHGsfkH+3+aZuGvvzPeiAfLEb42LWOuUnsc3rDbAfPpiL/MfbbkwcCFAHKygXw/ggIAfq49uT5YAOhjN5uf9L5AYoAtusKAi0dUbyxQKiR37XRN91tkFdbQOvwO+ok7rHzEEfoFKzpFznmCc4E07eNlofqmhmJwhM1mYaZGzAmhbqaQsoQJ62Totc+Fybb/VZZxuarfkrnRj4G3Wi/7Fz0AcoOjkjgZwY59FUf+yjAyA3zp7jWIcaCkhqux9ssF/b5VEOupRp0zHypGYgBCMFJfZtg0ofdeaCz+cGQ/oGelZ/GTsHfYDCOApSOAQbhvovdviDETqybEfHx559gi9wKT1roFPAyQlOfdWZA36OXASdvnU3BsqiCYVCYbRM/XMrhUKhsNyUAFUoFEZLCVCFQmG0lAA1AGXllsJ/iV5Xjgm3ygtToa/J2VKPNKSedeLbIJ07JMipeg+Wr5qnAX3zzZbayv9Dwjdq6Bo7Dw318i2i2t72reMspPSMb+H3sz5rVQLUjOhr3lhnl6Okvv7FgPNwYJwGmQ9V6DT2KWnaO+RDiTxrZB+dGBIGRHyO57XwO2RYrscP2vRMvRyf5W2O0Xopz5Co4WNGz8d4cBDSm57HssYdEka5eQTGoaBtdNJ5QAdVhxx6ANKMfojnryBHz+of9ql75Mx9OHWUAYpGNc08xoQu4TwayVIogC3n9DsFcs0yqo0ZddIhZ0wp6MBDBSj6ii61hug3XfTMQOzz0T9ygtToAhQdlwY1dVxmJQQFFKTOxmddZnEu6RzXDIaZCuWSZqM5xkR5OoZDESBj9yw4z15vcx71xIxEeU0GoA7yqH7KS7W7i4w2n/LaMm1gtJcilBcDndo2x+rUgKI82CJVXldkN8pXx0N26iDNQlslg7ahAkQM6p6mfuu/Vo+yHZudeStY+E39IRdrZ7uhfxv0uuqZcr2tABu2XUGMLkDR0FiHFxgMhWgGoIBGmj5TBgpFASiHzxidYGUVpTxsMiblUpYPLpxPPZRHHSCD+ss48pLepHzKRy426kYWzqFMSxcZ1ZmpH6Qr66ikkYdzpUPKJs2j8pRP9dry+J80dSTpqc3xcqAsylHHpH70gc5kA49kTB0fEtm3K/iA7O47ttonG1tk12mhPnu+bBu7TdFFz9iQvLTJon4Sa4sYVYBS5/ENEXJU7/wpR1DHsx3KopmLVbLvcELOYmWT4r2RVEaqXqAsZLPG4RzvYF1kjOkBua3MlE+9OJjgHN8RVId1Tv4nzcosHViQOebUs0A76LjI36RX8vi2zIuUX+YS8y/SYmWqs3uf6ILte5TH51R5XfSsdsTshj2bdDSqAEWDfQe1cIyG+gBGmp91kYf0VHmp4+qE1imU5o3FuTEjqXOnOpLqtjJTn6+ji4xAvqaADHR0NktM7+SR4+CsyEXZPh/pyGID3nKArqgfZ2+CtvhZaBvIn7u11W+ZNUDF/Ii2xewrO9jBY1oUnHyfsnTRc1OAUmBN+exoAlSOglGaN7ga6EdsdeJUw1WfPy8WdEgjrw+MsY4N1NlUt2SzbZU8Nuh0kRGQj8DCOeTx8irg2WASC4xK0yZntHks0g+2idmP8sjTpXN7ci4pJPcs9fTJrAFK9lJ7aF+qPNlgVuRDlJeiq56bAhRQXyrYjeZJclYjmQi65PfDLfzQv1+xgqdW4eSTTw57EfuNbUvTaix+mSV+T3sSHBf9BjRPyU4MFZW3beUWfjua8uy5sWWqusgIyMeP9E8cIuTRogVCCwqcc845YQ9aGMEuVaQVYyaBEY8PvzlPefqNc09qtRhk5feztSLJtFBOzipDakuXRQPGDPbET/7555/wedu2bcG2MfzvvU8DesZnqBebpphWz6nfSmdFHPsb95ZRBCgE4wf2Y52uCYIEjo8R/TJL/CA/Aa+N2GossaCzcuXK+r8FQz7wwAPh/9h6Z5yPTKmVW2Jrl5GWkjdHRisfq+Y8//zz4Qf77esG+lF9Hxhj+ovBYMA6dsK+zhBbLQZHv+KKK8JSSbOs1Za7yhCLRsCsSzyNCfT29ddfh5Vu/KAm8EcGy2mWm7KwAAS88MILYU+/jC1Y0VXPbSvHXHLJJWGvNR0towhQisg4cxMY6NVXXw0GoWO88847IajFnJ+A17QaSNNqLCzlRPlajYXOiwPgJBjthhtuqG688cZwjNVV6Lh+htC0cguBwzsT5WNE6tBMJVdGZCIwsDoIkPfNN98M+rKjFo7uR1nOpV7OoV4+cw7naoUUNspmccqzzz67PjNvtZg2J25bRQW95q4y1BTkhwbZmlY7alutRuAnlPPQQw9Vd911V526GM2MTzvttLBP0VQn+sQHte6edIxveLrqmfyTS7j601LoX9SjWfIiFq705ouun/09Ew/3QCYdZ9ENPP7318K6B5S6ZyJU70Q5B+7zTBQf0jgmeXRdTjr3ALjPMjHmAVliN4g5HpNBssXuK6l8zhU5MpKf/8lDusrx1/yk+xufyKfybX7aqPKkY28fypIsbPyfulmOPN5OQBrn+ntXtJV0Ky/yIYvVhUA28qOHeYI+aat0oo006wt8pi1tSA/elhZ0RB7rNzFSdcoHYpu3WVc9q+w22bgHRT7PKAIUjo3TpcBIsZtoMl7sxuwYwHFol+/Y/0WaAlROR21Dgd8GgTGDPlI3hi20xw8qHspq6j8it84muugZv9fg1oYGKh+IRxGgEAzlpUg1Mtcw84SRhgA81iA6FNgqZkN0k+PAbWgWcTAMBpqFNM2KAJ9p6hegstqCWG6dbeTqGdmxbZtcQjMtH/haA5Qi5nJBQyi/acpIEKKxmibqkqYPhQ8BMuJo/rLkvwL2YpDxozd66eOSDB+i/NzOMG8IyKkZCOkcl8+0BQL0R9vbLqGa6swlV89c5mPrLn2TvPRnP1jNPUClBLOgGBpMPm18Jr0wbqzNtDXZuit0loMpOLWhgZd9U3DSjGio2fly65k2qN2WXgIUhaMo8vmbpDgj6akInxOgCoXCoQ9xwF/SzvyYAV9L86AVX09OgtSSrwr1DETqOZvUw4yFQqEwc4Ai8PD0Ms9O8CzOihUr6iML8AxE1wcwC4VCARYFKD00Z7cLLrggHPPpbBZmUpPLuPCqg9ADhLGnXwuFQqGNRQGKVyQml32Ltl27doVjPp3NoqfBY+952bRCoVDIpbdXXfROl50t8QIwlBlUoVCYht4CFPeh7DtxvJ/GO0SXtbxhfai8eV4oFPqntwDFvSa9FMkLnrz0umrVqvCZe1Gpn+oo9A8vEZeFQgtD0NcincQL8N/29xag+PkRbpLzsx/8jhG/J8Ob2LzNzVvRW7ZsqXMuRj8lkvppksK/2C8xUg6Bru+8887wu0F2UCBgxb7cWG5yZD4U0Nv/+D9tZb/cDF0nP7XDryHIngSnjRs3Vps2bQo+p1//mIZ9+/aFPb9csYj9IwAx/ANahTg8yZsyGw+7Nr2czMO089Bzk8yHAugb3fJ2A//zShOfl5Oh69S7cjxYDdRlX91CBp40T/2aRRsq37+OMwqvobFjf+l3LPAqQCzI8KQ+Bm563w8HmscT+3SiQ3kAantbYjkYsk4FH/8aikdBZhqZ1B4FQNHbJd4sMG3k8jD2w16FxfDg69q1a+tP/8LPwfLEPr9sGUPPpE0CRZ0yHPyw3dVXX11/OrRAr9u3bw9vUaTeluiboevcsWNH8J1169bVKXG4pcA3+eTvCm+cwJIfOKwD1Vzx08exoUsnZGS2h7yMKEKf2Rg9GHH00qefGXJML15ynJkF5zPL8KAP6iMf+TXKxGZJHG8a4SSj6leZsRdNaQPykIeNcpm6U7+Fsmw+ytMlh6AsjlEPZZCHz8gTg3TfZg95ZA822aQP0C1lU7f80bbTzg5kD791QXZhs7YgXeXZftFHnSA7+M3PdGN5YjYR6Mn7fA6cE5tljyJAyYmX603pWaBzWmfFgZFVysSRkBsnVhs4pkBggwZpdCY2lUen5TwfXOSgOAPnsalT8r9Fb4I3OQ7lIxcbdVMG5+BQFsqivaSrM6pz+iBAWbRF8lAH+SzqgBzT/QnOIc1DebRRulG9Fo5ZWSRvU9tzoR2yA3JIN6SlLp2le6+bHNAvZcsWqltQf0xPs9QJqs+ej/6oywZggRy5QYdyKFs+kYP6f+z+1SgCFMjZxwQGRHHqMII03yFkdAyZMo5mLtYJfIcDjuMs6iBCHdijMrycFs6jTJxbcI7vFNjA1yGn885LmtUD7fY2pHzqtc4Xa0esg6Av0iySxUK+pntv06C6sYu3tUUDjNdNV2I6IS1W96x14ieULWij9w0Lx7yfpJB9mnzR09Se0QQoBYOUknJA6ZSRs1kDpcBhfIdTMPAdQjMrG2gsCmDe0DrPd0yfBsgTc5S2AKW6KVdQNmlW3lQbOM93HpB+mjoKx70OfTsknzoj7ZCje1nkJ7HRtk+kCz9IeBSAZ0XttaCn2GDXV50gfXp/FvKTXH1PE6Dwj5SeRxOgINUB54Gm0eo0QtHeO46CSoqUI9Be3/nV8S2xgCLaApQ6mw3+kscGF2QhzbctZRfKo6OweT2BAo917lg7JIs22k59qfZITgYZP6BRp46n5MpB9o/p24Jucga7NmQjtZl6U7L3Vafs19RG2SY34HQNUNJzKv+oAhTKQGGxUWNoUFhMcTgHmweHaXIaGc52KNpJe33nJ58fUWLnCxk55dC6XLFQp28H8vt80kPKiW1AsDM0yA2MalsXu1M28iOvD7K0g7LaZG+Ccijbt8miYJvSexdkQw1gaoOnrzqpj/a1lSPb5tLVlrJXilE8ZiD4mpL3+ViccozwVPSePXuia4LxxHzs63/PNAuF8hoAXytDLC9pE2frZaFQWy+PfWiBUru+HvLwZDpoFdpJR662bt0a0sSsC4XylDRfqQv7SkVsoVB48sknqzvuuCPIxVfWE+evdu7cWR/NQ2vxUR96SqFVjvt4n1Q6YkVsntBWGzx91Ild169fH9rHL5gAbY49Cc47tugwl7ZFOi34EfaaBLU6ZSmjClCAsyO03s2ZFwokL774YtjjNFpIc82aNWEv1GlWr14d9jG6LBSKgekY5CN98+bN1YYNG0K6zrUdF5o6U+5CoQQN0kmjfLtAKfpABzjy7t27Q0BWu8lL3d6RcxcKVWfT8zOkWZlE20KhkueII44Ie2DQ2Lt3b/1pIQ+vadgVki20nYBGxyVoUCdptF3lCwXg1JLeIneRTnTFitjUl3qeLbdO2hgLOOgOefgRSS1vjr7xKfmoIC/tzxl4BX4wmf3Xn5rhl3gJTrFB9wD1TGpUMCWfOHGnKf9yoPtKyIJMmob7yz5Na+2lRgxNlylPU3nut5DGMbVX02+brsslzvX1g6b+/nJGlzmqT0iWSac4IDf1SB7SkYNjyGIvByiTS1DJyJ7Pvv0c85dIusTz7SBd5UnfHsqSfGz8b+9vqa22XGSmLUJ5/E1f2k46eWUH9shi226hfo63QZmU0QbtI5/qj5FbJ22J3XiW3WOb1RvI52K2iCHbtvUDQA62NkYZoIDGxpxiCKg3VrccaKwgH87b5OCHMl0CFMF3Vignp5NRfyxYeCjLDySe3DrJl/vNWwp0Rzk5AQefSwVyDzbIaQOMNkDNi9QsSQbIVey8QD5G2T464MEGNsJ2tpMTHKzNCOI2YE2LZhdtAUUyeX/yMCAjWxO5dXK8bSaWA37E1ga+Rr42+aehBCgHowVOgFPLwDJAH0YfAjoDnbDNkQ9FaDcbdvKDDWk6Ngucn9t5mVGkLpHwMWRjptM28HWpk9narAOULtfafAjZqa8tAE9LCVARMAqOgIHYNHOa1bELy4+CkOyWCg7Tgm9QNp1yVn9our9l6bPOHPB9ZOtbd9NwGH8mjS8UCoXRMbrHDAqFQmGBqvp/kFe6bEdP2VQAAAAASUVORK5CYII=;" vertex="1" parent="WIyWlLk6GJQsqaUBKTNV-1">
          <mxGeometry x="87.45999999999998" y="240" width="215.66" height="51" as="geometry" />
        </mxCell>
        <mxCell id="xW0SYJLAr49xiK4sMMPl-63" value="" style="shape=image;verticalLabelPosition=bottom;labelBackgroundColor=default;verticalAlign=top;aspect=fixed;imageAspect=0;image=data:image/png,iVBORw0KGgoAAAANSUhEUgAAAUsAAABGCAYAAABFXrb0AAAAAXNSR0IArs4c6QAAAARnQU1BAACxjwv8YQUAAAAJcEhZcwAADsMAAA7DAcdvqGQAABrWSURBVHhe7Z3Jyx3F94evv70xxl0SvwR1oRgRnHECBafoJghGCUhAURw2ulCjyc4BRbIIjiEBCQEVDWYRZ8jCGMERJQkKDogLV07gH5Dffertz+t5T6q7q+/tt7vvm3qg335v3eqqc06dc6q7bw8nHRszymQymUwl/1esM5lMJlNBTpaZTCaTQE6WA+DTTz8d3XjjjaM33nijKMlkljavvvrq6Pbbbw++PzNwznJSfv7552OPP/74sYsuuojznmHZsGHDsW+//baokZFdbrjhhqJkIffdd1+wn7fZwYMH57d99tlni9JuqJN5qfDuu+8u8N1XXnml+Gbx6KNPCzGLzxG3XVGmMz5OeZeyTMNUyRLFzzzzzKA0KMBPPfXUY3/88UcoO9HBDtgklvAow35ltsLJ2Fb27YoqmZcKr7/++gLbErTYezHpo0/BmJKU6L/Lsa3TGbnIF11PGpMwdbL0g82sZY1zosNMHrOHyquCBQeiTtewl7uUx1ABiq92RR99WjhKYDy7nAhTdVZCJSaGzFTnLMfbj9atW1d8mmPNmjXFfxn44osvwvqcc84Ja/H888+PxnuVx9nP8t133402bNhQfOqO77//fjR28tGVV15ZlCwtdu3aNfr7779Ht9xyS1Gy+PTRp+WDDz4I43naaacVJYtPqs6cu8TfqD9o5nLmQph1mBHsISJ7G+xCU1aF9iz7nCWQlXOnyIEeHH4gl2ZTdGKm5XudL2EPD90oY6azsIen71jzPbbw0C7t0Sd16QM5YnWpUzfj0hd9s0eg/su2SZWRctVjoY7Xlz6QmzGUnagnX7BQh/rSmXp+7NlO48FCXT7H2msKbdA/7dKmYDxjNpYMdmmyl0V/solvW3ble4vtS0tXh8Expulf4+yXaXVm7LDfkDkuWZJoUAqHR0GCUA5SlwCpl5IEFhPklwzIY51bh5V8pp4SG2sSBnWpZ/WkHeooobAddfzAsi2JgkX96DBaCVmojSrnkf3ZVrrwP2Vsb0mVEbkot/XYzsvBdrSpMSfxsB36WJSQkAv5yvSiHZtsaZt6baDJBJ1oExlYqpLxNIGJrrSvsbC+Iv29nWBIySA2RilgT7aV/wDt4AOx3NBEZ9qh7bIxGwKVHouDozDOrQRQBXVtUFShwE1dUvoHBofgtGggPDh8LFkIJQnrHEAZNrHEEplPTkLlVTop+G0/0sM6ZhMZY3ZAbtoQStJ2HGN68J0SpVAw+WRBmbUx9Wi/TdQ3/TD+kj0GcnvbNCVmE8poO9Z3G322hR+PVNDPxha6o5f1eUsTneWbVTHRN5XJsi6ZWKhTZbguUIKxwQ/as/FQVjXzxb5XUPrEQZl3DMnjZ10FWpVjKPnawKN9L0+qjCB5Yns+QsnX2jCmh3yDviinPrKwWJkB+Sj3dmgb+kCmKrtqMqiyQSq0Y2ODNmOxMkmf8pHUpUmSoX5KTFchn/CxJprqjDxN9eiaymSJoihQ5+QYru9ECezZIq8H2eweECihlDmNBttvF0scZY4TS26gQKhyDAIffSy0ZRNyExkF2/MdE0hsvJQELTE9+Ew7LNSnPfzFJ0qgH+qweHtjA/TkO9pC70kDhnZi9rbINm0EJbLaPS0+x/Rvs882QJZpkqXGE73KaKrzLCTL0l/D//zzz9E777wT/v/hhx/COga/2N5///2jl156aXT++ecXpfVw5f5JJ52UvKRc6f/PP/+Mxs5bfJqDu2L4Re68884rSubgF1+4/PLLw9rz+++/h/X//ve/sBavvfZa+BX7jDPOKEpGo99++y2sV61aFdaA/eh7HEBFyX+cfPLJYf3ZZ5+FtYdtv/rqq9E111xTlIxGv/zyy2ic/EZXX311UdJMRsE4jZP66Keffgrt067lo48+Gl1//fXFpzliZcgyTqzMTKO//vor/Np67733Rn9txS9+/PHH8Kvno48+OnriiSeKb+ZssGLFivD9ONGE7Tdt2lR8mw5+iM2QC/uV8cknn4R1G7/0Y2P1xVjffffdUf3b7LNvsDN+89hjj4XxLGNSnf1VI0OiNFlu3bp1tGXLluAQhw4dKkoXgqPceuuto/GexwLD4TjPPfdc8SkORiTQUpdJHA350AH8IChR1Q3OKaecUvw3pxeXAsUSICgJwrZt20KSvuCCC4qS/yB5jGfm0a+//lqULOTzzz8P63PPPTesoewSJEiR0d5axuVK9IF8b7/9digDJWkrs5J0ykRIINlEyGdu4wSSCImaBPv000+HMnjkkUdCOd+zXHjhhcE2TUBukvDevXvDZ9kvxpdffnnchDop2Al70f++ffvCZBGjzT77RPGOLzFugL/ZMRdNdf7mm29CrolNNkMhmiwxANdLkqAIujfffDMYij1I1kLXRT311FNhDXzPnk0fLF++fPThhx+GAGch4d9zzz3hOx/sBw4cqByclStXhjVBANzLevjw4dEll1wS9oRoXxOE9uw+/vjjeTtdccUVoYzvSFLeodiWPbYYR44cCWs7QWjvdfXq1WEiYoyayEhQv/DCC/PjpyRp96xje9vaez399NNH77333rweBAJ+QR+APATSbbfdFj4D7TEeStLURedYECEXbXz99dejnTt3FqVzkHAvvvji4tPxaGLXJLR79+75cbBQhh1IyFXoqAd9q5CdHnjggdHmzZvD/57UPruCCQzeeuutsPagdyz5oQfjwBEGkxswntjYH9lMojN+saGHa4obMd5rm4dzbhTZc2CcQ+D8xDixLDgnx7kZyqkfW5qczG4LzqUgJ/1z/goZWY+Ds6jxH9Sx5/9i6LwLeuocD7ahjDbtOT+dC7R24hwWZWzjz2VxPpHvYud9aJttLfa8n7VtqoyUSR4W/vdjpPNGVlb+j+nBmvbVHvqjkwXfsecjWfM5Vq+qHfphWw/yUG5tqPPsfnxA/h2zuUXy1PkwNqBe1fm/1D4XGz/+LNjO24lyxsgj/44t/jxjU53lw37ch8aCZDmrYGQcwQY5yJn7SNwp4MAkVy/3iYrGEZtYCOhYADdFk0FdUCpZ+mTrkbxVpPY5FNqIlyY64/sk7aoJZygsiWRZtvc4C47KjE3A1QXmUgW97WShvRKhCc/vvUwCdq5LbsAkFvMnC3JRp863UvscAtiexDXt5J2qM2NPPew9CyyJZEnCYZAVUAy2DsdmYcZCbgIPZz3RQG/GDxg3Jj67Z8n4tXEIq0O9OhsrCcYSBolRCZJ13QSX2udQwPbTTtqpOhOf9NfGJNgVSyJZ4thKmAwUCzPWiZh8Zg3GiKDRuLURsB58gQQ8bdJVIkhJlG31OUssdZ3zC8symUwmgfxaiUwmk0kgJ8tMJpNJICfLjuBC5/xSskymW1p9MVo4c5mZGF2Tx1L2y3vZ5UG6tImly18F++q3D9CVHx2kb9s/HtXR15UO6Ol/OOsSrhjA77u8LAgbE2fSWdeLMgaUTytLTpYtwCAxOLHEo2CNXYoCDCDbdk1f/XYJwYrtCVzsj75l49A2uryIPst8Y7EgUdoLvRnrrpIW9pVvsUiGxUZXKsjOJEc7QSEXNpnmgvtBRwsG6MrY06CB8hAwlFftVTDjE1Rd01e/XUHQYPs+LmNRomRdNZEuFvTNJNEH9I2umpy6iF8lQl2vW4bilHERyFq3nRjsOUvO7fFwhLvuuqsoGS48jmo8kxWf/iPlpWQ8cGD9+vXFp+7oq98u4EEOPDQErrvuurDuEh6NxyPrWC9btqwo7QbOzfHwkvFkWJR0y6y9GE0Pq/EPXYlSJM1BQeZnpqg6v2TPTzCLsnvNZ83gbEs532vPjlmOdimzs4sOHfQdsyOzUOw8D9tRTj0WtqOf2GFO3WxHW7SBrMiv/mN7Q01ktPVU19qySb+ATa3OsT5pS+PBUmaTSaBtdKBdexjFeFJm5UZWyWAX+UXXSJ5J+sd+bItdGX+BT0kvi2xkF8r6gv4n3bO0/msXr0+sTlWf+C6+6cHGdbIOMllikKpAIzgwigJHyZUyfaYNHAwjYCA+E3QkTmss1WGRQ9MubflEx/b0Q3v0AUoi/lCbunUDhx60Rz/SBTkoszSRkf7Ynv5BtrLBmtovqD3VU7+2PeRTe/pMe20FKu3SJmvJiA5VPmLl6RPs5O2VAvqx6DCe/wW2wIdjk5bGR/7ZJ8hRl4BioJ/XWX4Y06ssAcagHdqmD4viVXETY3DJEgNhFK+MwFixQSAwY8GpJFDmrJq97SDIwe1gAW0xKFY2Gd8PYkqQKPiViAAd/MA3kTFmB+S2Mqf2qz7sRKDgtU4V05V6VclsEmziiCUKIcf3tumDmG2awvY+8Ze12SRxLDbIOEmyRC/rw8oJZYmM71InRsVrzHa04WPHMrhkyUBXKc53KOuTKWU+OKlDeVl7Zd8rKG1ysoFqYduYc6YECUmMxeL1byIjUK9qcoCUfoE6ch4cVU7r6yGDZPTj0iayBbJW9YOc1KvaS/AoiFKXVFL8oA7GwAYxepUFNbapmkhieN2qlibJr2n9GBpL/D2GfM9O/FVUJUtNsmVjNahkmeLkBKt3FCnpDaqEUqZ82UAQ9D4BUkZdH6SxJAN1QaLAt4OsgUcu0URGoF2SHNvEkldqvyrToiC0dSySk3peVsYHWRg76jB+tD8JKXsRfE8/Q6DOD1LQkYVAv1h7GrNpE1RbTCsLfsN4l/kcyO9S7VuVLIHYKZtsBvVrOK+jGAtb+b4XfvW69tpri09zcJU+nH322WEtYq9nsFS9aMy/oItH6I8HbsGvfPzyOHbQqLx1LyXTe2Iuu+yysAa9Z4fXQogmMgLy8f6TsVOEOnoHjkjtV6+TGCc+ojS84Iz29JoKD+Vj5x6dddZZo5tvvnnBKxl4Pw424sVm1KE/rhRoCv0D+lVR9uqKWUWvbWDc8UPsGPNpjWPZS/hmib5ejMZL5+zrUiyDSZYIxyUPsQRQBQmLICKR+bcZ8p4dkm8dsReNxRLgihUriv/mHPfJJ58M/9sXiwm9D6bspWR6CZzth4GP6QEpMlr5eKHUnj17wiVC9lavpv16mJhsIuSzXk5Hm1w6gs23b98eykBvfgTqkJQJ+CYQPLxriPe/oBP2j0E5E5ifUGcZ+RfvNGKSsS98s/D+JWiaOIYGY9jXi9F0qRnv0/IMJllqVrzpppvCugyCmpctYVCSwPvvvx8SrN0rEiTfqhddVb1ojDcm0r4GiERCEBK0JPaNGzfOv7KVF4eRNLTnIxjsspeS8WIuP8i0y0AiC9vyOVVG6pJAlbiou3///mAvO4um9ss2bKuXf7HQNi8Tu/TSS4st55LYjh07wjaAPFXJinYY6zvvvLMomaPsRVnANuydvvjii/O68MI1+vZvEdWe89q1a8O6b44ePRrW+KkHW6W8GE3Jj2tHmWzKJjV8LWXnoAsYGyh7MVrZS+gY6z5fjIZtiQW9BnwBc0fj/aPzTP4cm4dzFOMgDot+0OF/f25E54qqzneA+rXn2jhvQRnfSR57LpBzbpxP4RyRZImdYOb7Mhko9z9I6fwLsthzKiky0hf/U4dyFuT052YoT+0XHdWebOzHh23pR31Sn/bLxhEZWTxsGztXhJ60iSyCetSX7had38MefYJN7Fiw8JlyIR9N+XECO9htPdiBtmK27RLsL9/Ugu8gux1DPlPuQX67rV28LxMLlNfFuJCf1/mG/MszmGSpoCgDw8SCSQazAzEkcB70KkseJxJliRIYw9RfNKtQkpoFlCxTfJf4qApytZWaOPqGcYrFcxP0Y03KxEj8acKvQ+365DyYZIlwVTNnmaKzEBwkCJx9qAm9C6oSJRMe4zvthKK9K7/nPFSQs8rnBXbTEUUZ2qOehUlZ4+STUVOIKZY6iDvqpfqF9kD9xJOULDVrLRYoQ/tlwQQkRDu7sqZ+G0bvAmQkMOqcfimC01mnJljsXgX/tzGR4A8k3ZQ9jb7BBvhDWXLT0Qg61e0tYjv0npVJgp2eafeAldDq4omjFfyrSY5QvvM7Z4NIlmXCWXAIlKaelraCLLO4EMh23FhS9qhS0Z4KCXkp+APJHn1ImCl7lLOUKNuAccY20ybcMvAh7O933lpLlnSAEtTz5550DqBsxk9JlplMJtMV5CM/obdy6RA/7XMxp66x8z+769qmskseyi7czmQymaHQSrIkCXJxKBd6cq3f8uXLi2/m4NqmphebZzKZzJA4LllykS8XytrlqquuCt/5chYLe5jjQ+1wm5KgrOyOmEwmk5kVjkuW3F40PjxfsBw8eDB858tZLLoLJ3bfsS3LZDKZWaPV2x11j7Hdi+ThGJD3LDOZzCzTarLkvKW9R5v7pXlazQ01N7ovhaekZDKZpU2ryZJzk9zcDjxUgpvpeWQXcO6y6lFLmXbhIQ08kMA/3COTWaqwc0aOwfenQQ8B8VfvtJoseWQZP/DwqDCew8hTQ3j6DE//4akhmzdvLmouRI8fK3ucWeY/9KQaFv/EHYGtH3roofBMSztB2R/vpnWoJqTIvFRAP3YQpK8CbzHpo0+LJua6pye1SUxnHgP44IMPBt8ve4JVCv/++29Yr1mzJqznOTYQEKXNuzqWMtzVgb24mN/Dhf26VS6G7iHumiqZlwrc8YHtuflCdxWVjUNb9NGnoE9ilj67HNs6nfmfu5omfTCLbqX0dwgNJlnqFqZMPRpMD85DedUtctwi2sekhOPGZF4q6C60xboFL0YffQolStZdToSpOitGkK8puuPQ69PqYfg08CDQsWLz5zwz5XDVAXdKeXiK9njCGa1bt64oOR4elrp+/friU3dwmDRO1MWnpQU+y4N5QU/aXmz66NPC+Tzu2GO9bNmyonRxaaIzp5+4MmfXrl1FSTrccQjHPXG+SJq9o5mgi9lpEpg9de87e8DsKfFZ8nJvPOV8rz07Zig9RMLPcGyv+qzRn/Y8bGcfIMJhNPVjD06gL3/zv4W2aANZ6V+ylc3SqTLqYQ6SkT0O/0ALtqc97KU2y2SljtWZ/z32WQQsZTaZBA7jkM33zbh6GyOrZLBLEz+2vmPHQuPFYp+b0EafbSJ5Jukf3b0eWqbVmbHDrk1hm9jR12CSpRyjLYdvEyVygh2QVclBnzEuQUYAM0hKGASYHzCCje0VGHIYX49y6tEefQD/U1cJWagN62Ae+lOwSxfkpcyTKqMmBL4H2co6sR1b2sVO/E+ZthNqT/Kx9u3pnJSSluwec/BJUFKXLsjIgu3pK4aVpylqFx28faW/txNM02ebKJFVJa4yNAFZ/RhHbBGjic74EnKVjVkM+ar8zzKok0hVRuoLGc8nIWSNBaeST5nj4By0pyQkKPNOoOCxgy0HUPIUKQ5L+8hmHQEdfIA2kTFmB+S2Mivp2G1jekgHOxFIFhtMMV2p1/ZEiw70g6zoWBZ0yEY9b6+mxGyivj1t9dkGKb5XBvqxCHzE+49oqrPs2UQuTU4+vmBQyVJBZQOjKTJQ6lIHg0c9P3iU+eBUcPmEYlECtGg76wRlCYu2/faQ4rD0zWKhLS9vqozAtlWTA2gv0towpgf9KjHgA/QV25PQBEa5H5e2QaY6/drwW4iNIXudsb4n6VPtpy5VOltick+CfCmWqKCpzpMkS8Ybm8cYVLKEWPD2CYPnZ3YGi0Gwe0CgBFc2OApyn2TlBNZJsAFlPhmU2afOYZXs7F6l5KF/0URGoF0cjO/KklfMAb0e6lcL37ONlc0ieajnx4HvGDO1RTte7lTYlj6q0FhNi8ZIe1rIHNurhLb6bIM630uBMSPWqhJhU52bJkvFdVn9wSVLGS0WdH2A8eS8QoPmA1CDU4acyp8PISB8QFKGHSxl24MG2ssqlMitMyrhWD2ayGihX+QlMVpSk7T69YmvCnRRUrTbUab+6Au5bGJOhfbRmfar/JE69NkGyKqJCpnteFna7HNaNHasJ0F+WLd9U50Vj6m5BHtXtT+YS4cEP/lzf/m2bduKkmHB3QrcQjh26uNuhzpw4EDSe5t537egLZ7MFNtuxYoVxX9zl01whxTopfsWHlSCTGV3QR06dCis7QNN9OATrwekyGjl42lVe/bsCZcm2buD9B5vK7OeRGXfZ14Gt7DZO0P4rLuA0EUPnN6+fXsoA8q4mwPQbRxkQc8mYG/eVb53797wWXp4qDdOyKXvSW8Kvs+73bnUCpljD6Bpu88+Qc877rhjNE6Y85fqcAeavxtoEp310HGes1sHcrz88svhrrcyBpcsgdskERwF+gaH5UXxDBZJgJfl8yBj+8AQwW2dsRfHi5UrV4b1vn37wprAP3z4cGiLxGPvnyfIcQ5sQPnGjRtHmzZtCt/RDtv6+77ZlgctxyAAx7Nm8WkO2sWZ0I1t+ZwqI2ueBaDERRv79+8P9rJJ8MiRI2Ftr1njVlhYvXp12B492IZtd+/eHdpi4budO3eOLr300lAfsMeOHTtC/8CYlAURdWgDHR9++OGidA5ukau6JW7r1q2jLVu2zE9CkotAtiiJrl27NqzLQA76pI0q0IOHzzzzzDPHySxS++yKo0ePhjWx4WF80Dt2KyRjybNvSZTye+oR+6tWrQqfxSQ6EwsbEq/t5U0PJMrY5DRPsYc5ONg1Z7e778Nx5BgHy4LDI/73h7s6FKF+FXxPPduGfgDhEECHXejNIa0tHyeFeVlih+J8XyYD5WXnIbGzPQRKkZG+OGxhW8r1nT+Uogw9LGwf04Nytae+/fgjG22qT+ojm6/HtlXt8J0/jwq0xTbWhshIfelukV2wRxWSx2/vqTvvDal9LjbYw44/C58pF4qLmL/6be3iaaqzfDilPn6ccppmsMkSUFjB2jU4bSyYYuf+hgROhRP2PckMBYKV5OeDgTGMBXBTlDDqwI+Row58njGsIrXPIaBkOW28NNEZ39ckWQfypSRKGHSy7JMyY8+CozL47M0NNaEvNn6vjORj93aY8BjfaScUticR1CU3YDzqgpfxsnLGaNLnEPC2n4QmOmNDbL0Y9snJsgQSIkbXbjxrkhCD5oNxiCAjTmp/JT5RYIx0GM24MZZ274EjhjYmEtok6dYd6lXtvejoSeNVl8BT+xwC6JKiUx2pOnOkwNguVnzmZFkCwYThCTwtbQVZZnEhaJjoGDOCjGCbNmAt2tNpY+8d2WirTsY2+5wVhqbzSfwZC5TJZDKZCgZ56VAmk8kMjZwsM5lMppbR6P8Bhqnsp1AQCYcAAAAASUVORK5CYII=;" vertex="1" parent="WIyWlLk6GJQsqaUBKTNV-1">
          <mxGeometry x="352.38" y="290" width="231.7" height="49" as="geometry" />
        </mxCell>
        <mxCell id="xW0SYJLAr49xiK4sMMPl-64" value="" style="shape=image;verticalLabelPosition=bottom;labelBackgroundColor=default;verticalAlign=top;aspect=fixed;imageAspect=0;image=data:image/png,iVBORw0KGgoAAAANSUhEUgAAALsAAAAbCAYAAAAkjP6EAAAAAXNSR0IArs4c6QAAAARnQU1BAACxjwv8YQUAAAAJcEhZcwAADsMAAA7DAcdvqGQAAAWsSURBVHhe7Zy/SxxPFMDHb59C0ylIiDZCQBDFwlhokUgqi0AEwUaQiBAQgsZflRjQUlQSSJEmREEwhYlgYRF/gCSRiApCPBFs1aD/wH3385z5fvfW3ds7b+9yl5sPDLP3dvf2zZs3897bMymJOyiLpQj4R/cWy1+PdXZL0WCd3VI0WGcvYDY2NlRbW5uan5/XkuLl7du3qqOjQ2wSCAVqVJydncUnJyfjjx8/1pLCoBD17u3tjdfX18d//vypJenx8ePH+LNnz+KlpaW8oIhXVVWJDfId9EZX5szL+vq62GR4eFhLEonM2d+8efOf4QrJaQpRb5wyaMJTgfsZL07Bd9BwfGT56vA4MmNGR1oQjIX5ZF69RJLGjIyMSH9xcaGclSXHhUCUehM+S0pK9KfscXx8rAYHB9X09LS6e/eulqYP452YmJDvoL1+/Vrka2tr0ucTpGkrKytqe3tbOQtUS/1hLHNzc+r58+diqwS000cGu2OhpTGQqd7sPFkw5w1IX9jhsgH65/vcmagUBru7N50J3NlZTWVlZdJ2d3e19FrODkZLWgz8QaampkTv6upqdX5+LjLG0NDQILJ84suXL6IT+hp7ojOFJzY20ceA/R89eqQ/JcIYzX0UbAbsgSxZIWt2wfv370ufC4LGTqGJvjd25jTARgsLC/rTNb7OzkO+fv2qfv36pX7//p1gOBRx8jvlrBz18OFDLc0fzML8/v27isVianFxUQxI6GfwR0dHcj4fwPlOT0/V+/fvxc4HBwci7+vrk1BMyP7x44fIgLFx3b1797QkEebpw4cPytn91dDQkMh4xuXlJVuhzF0Q2AlevnwpfbZhTpaXl2U+cPaZmRmRj42Nqa6uLtE3k4VXV1cn8282O0H29yQQ1rxhE1lQIZNuOmDCf6qN61OFypzCi9Afdl+6envJJI0x93p1JAy7Q3HQdV4+f/4s15k3LmHwRsdc/ydgjKQdPD+sQE41jTHXuW0VWqC2trbKCnHDauzu7tafMoPo4OiRcksnmhDKVldXZSeMMgqZtMDdmpub5ZxXTgtja2tL+vLycukNRKLb2LmxsVH60dFRNTs7K8dBsPO1tLRINEi28xv8xhfUsFMqNDU1ScT69OmTGhgY0NLoCXX2Bw8eSG9yKsJiT09PRm8CckVlZaUY8enTp1oSDUyIdxE6O4ic88ppYZBmgDtsY28W621COXNDmsn9yeYJRyfHx8lJm1LBb3xBLVXHraiokL69vV36bBHq7EaRq6sr6ckvo9rVgUn12xWCmll0YTCRS0tLcnx4eCh9vkJe7qRQ+tO17v39/Wp8fFxLrrlz5470JhIEYQrRb9++SR8E+TF4n5NrqDVYnHt7e1oSHTU1NfooBWevra2Vfn9/X5R68eJFpLt6ttIYJpIw7tQbanNzU0vzE3cRxXFnZ6d69+7dDTszFzjFycmJltyEIpZ0gJ2aIt393W6YSxYFqZL7Obl+W4UOpJlEF1LOqNjZ2ZG5T7Ch40ChmOKNQi8Z/HplfuW67a97UeAudCjQ0Al90N9Pryj0NsXjbaA4w74UiqYPgjGgqx/ozv30pujkl0SO3YUf501B6MYUtrkCvUwBjZ48GxnHQUU413MduiaD8Xnfs6c0MlMtBzkCRsPIKOFuyHJZ4ZvJ8r7BQHccxGugKPXOxNlxYO6lj8ViWuoP57nWqx9vnhije6EYx/AucvOmwq9hq2yDLjzLLEwjQ3+e716YwJi4lnNuXRmz16EB23Dea8uUZgdjha0kS+5ggnGMoM2nmMEmfgsGQnN2cirnZvXkyRMtsfxp+JsW3rTwJsX8iGb5/xdkZ3P2fxOknT4BdnLCMrkTx5b8hDkivNuoe53zk7YF5frg+w+uqcj5S8BXr15l9SW/xZJL7P8uYCkaQnN2i+VvwTq7pWiwzm4pGqyzW4oEpf4FS5uNsstf60MAAAAASUVORK5CYII=;" vertex="1" parent="WIyWlLk6GJQsqaUBKTNV-1">
          <mxGeometry x="109" y="325.5" width="131.59" height="19" as="geometry" />
        </mxCell>
        <mxCell id="xW0SYJLAr49xiK4sMMPl-69" value="" style="shape=image;verticalLabelPosition=bottom;labelBackgroundColor=default;verticalAlign=top;aspect=fixed;imageAspect=0;image=data:image/png,iVBORw0KGgoAAAANSUhEUgAAAUwAAABNCAYAAADNRV1OAAAAAXNSR0IArs4c6QAAAARnQU1BAACxjwv8YQUAAAAJcEhZcwAADsMAAA7DAcdvqGQAABthSURBVHhe7Z3dqxfFH8e3331kp67UQsqLQiXQnsgSDOxBvTMs6KaL0Mpu8qKs9EJIpQgvInsiISIosdCLngWDzKBHCo0EK6ILr3pQ+gP87WvOvk9zPmd2d/b73bPf/R7nBXv2fGdnZz7zmc98Znb2YS46n5MlEolEopb/FftEIpFI1JAcZiKRSESSHGYikUhEkhxmIpFIRJIcZiKRSESSHGYP+OKLL7K77rore+edd4qQRGJu8+qrr2b33Xefs/2xgseKhuXPP/88/+yzz56/8847i5CEQMVsZbp5+OGHz19//fXnf/jhhyJkkmPHjk2di267pE7muQJ6vfrqq6fKa+tgNugyzw8++MDZlvJ65ZVXiiPd8Ouvvzr7fuqpp4qQ6WDjyFd2vI8M7TCphEsvvdRVSHKYM6EzQTchp6fGQ5wQGDznYlhdUiXzXIGGjO5p1CpvWT20RZd5vv3229NsB8eEPXUBZcIJkn+dHREX/9G1Mx+UoRwmSlFBqZDkMGdC4/ANVyi8yojRLXG6hlFPSOa5AuWifDiVrugyTzkhHPQowA9QXnUKdR2vnDttou8MNYe5a9eubPPmze7/yy67zO0T0/n666/d/tprr3V78fzzz2f5aCNbu3ZtETKTH3/8Mbv33nuLX93x888/Z3mDy2699dYiZO7w119/ZS+++KL7f82aNW4/23Sd5/79+7N//vknW79+fRHSLR9//LGznVifwFwm9obcfSfoMJ977rlsYmIiW7x4satsoPHecMMNLqzvICuVcNFFF7lyPP3009kjjzziygWUiZssHOcYfPjhh65shNmbL0xQ6xh7jqMLC+mSHnkSlzwOHz6c5aPvGcZDGnfccUfxK8ynn36arV692k2MK3/KESJWRsIVj404tryff/65k+23336b0hPxZAs+xEEmlZl4hPlwnuqDjbj8DqXXFOpaMqIDQV0T5pcNPV5++eXZgQMH3G/+J06TGw/kJ/35aVNmwthkZ9BGniD92o2y+xD2xBNPuP/XrVvnfvvy9BXsTTrqNcVIcwouxxhC65KRy0KG1gyzq4bMHO/DJTny63IEuSU7ZdElJr+Jx5QCcdlzWaBLCL+cpEMcXUrpcpW5KB/OZVqCTfnoktpOaiuNqksV6Z9zVRb+J4zzfWJltJeFxOM8KwfnkabqXHOpdp6JcOkP+crKRTrohThA2sRrA+lGOgDKZ3XuQzziD0I+4p+qa6tf1betHxgmT/Lz6w3QMWmG2iQyWtlGRcgeQhCHuLKRvlJptRgFyqei5QTKoFGwxaLGG7vV5S8wFCuHKsNCo8LoyipUjsI3VCDMGn/ImVkHJRReVSbOsfmoHH4jaSJjSA/I7c+jylH7Di5UDo6hO98xqWFbx0qYr2PikX6b+HrAZsuQU7f6akqoLggLtYFh80T/frqkg+5DjhmGcc5tY+u+DOmzqk30gUqHWedQfJo6zNkAQ0LpvgMA5Ao10NAowSd0XE7BN36FWSOVPHYUEOMw5YBJW5C+lSdWRpA81qH5yPH4OgyVQ7ZBXoQTH1nYfJkB+Qi3emgTlZm8bP4+KkuZs4klVIc46lCdtpUnKC1r4wIdc7yqjkNwTuwW4w9EbPxxcZiVN32uvPJKN3l8zz33FCH9hvlCsDdSuPFi5wuZP/v222+zTZs2FSHTYU6K43kjKEImOXLkiNvfeOONbg8Ks5PszAXmDTi76qqripB4mL8kb3/ukzC/HE1kBOYNc6ebPfTQQ27ui/k4y/Hjx90EvK/DUDmYb8I2mJPLnWH2wgsvZA8++KCb8Lfzte+9916WN2QXr2o+DZnsnFws5Inc6KfqZgNlgeuuu87tB0U38b788ku3py7Onj0bvFHWVp7UF/PFudMsvVmom4xLlixx+1hyXxC9Pf7448VZFx6lDhOHcujQIff/qVOn3L5NmPT2J6/rtphJcgw2H00WvyZhYp6GvWzZsiJkEu4Ewy233OL2ljNnzrg9nYbPG2+8McN5/PHHH26/YMECtwf0R944CcvFF1/s9mpsFjlzbvgIGiROZ9WqVUVIMxnFSy+9lOWjk+yXX35x6ZOuj3XKEApDlnyU6RrQ33//7RwlT0yEnBWO4vTp085hc0NCN9p8uGGjxj4IugHzzTffuH0ZlMXayCDIQZ87d8795qmHfJTk/re0kSfOkvratm2b02MZcs7j+oSDfZqkb5Q6zB07dmTbt293DY9RR9tQobbnqtoGMQAcD2UAWxFyVnUVdMkllxT/TTZKGnXICYIcIezdu9c56uXLlxch/4EDobH9/vvvRch0vvrqK7f3RwlljydBjIw0MnU6jE7IA/neffddFwZy1L7MctQxoyMate8M+a0RIw4GZ42T3b17twsT5Pv666+70e8gkA9XF6SP/KQXgnDKcvvttxchw8EI/rvvvnP5U58hHbWRJ2ls2LDB1aFGd9RzqOOhw2ijQ+ia77//3vmaqquDPhB0mFTGokWLnJOi4XH5RaVxORAyRsIYsXzyySfB410xb948JwONnA2nr0tua8xHjx6trKD58+e7vS7zGQGdOHHCNZKJiQmXvnp6jfC4FJaeVq5c6cI4hqOyxs25jDxCnDx50u39TkKj2IULF7rLWuqoiYw4Ep4FVP3IUfoj7NCoW6PYK664wj16pXLQKLEL8gDkoVFv3LjR/QbSoz7kqIkbGm1t2bIl27lz5zTHL3QlQt4hKA+j1n379k11JpQNJ2Yv/9URLV261O3LwMmHHsmy4ASx+z179mRbt24tQqczbJ6Uj2OM8OkQAD1iY/bKgrjU84oVK4qQ0UIdwMGDB92+CuzCTi31knz0NoUm/JnQF0zC5r2nm0y3E81MQOfGPzUZrI0wjnUNk+rIiQxMwDP5zx55LMSpu5OoCXbKr4lr3YwhTX8Sn7QI9/WUdzYujHPsjYh81OGOhfRE2pzrQ17IweZP6MfKSJjkYeN/e2NAE+++rPwfKgd70ld6lJ8y+WA76B/ZiMOe3348dEUYkL+tK9Lg3NBNDORC3349kJbksTqXXqycFmRA1jrUXqpuVAybp+wqtNl8Jc8o2p6PtTU2yubbo49suE5HfWCawxxXUDQVZBsIv6mIpncMuwLDosFbuS8UKLdffjlMGr6cvxxmqKE1hbTJrw7iyYlXQUOnDqtoO88q1OGNg+MR1D3OVPXdd+aEw8TQMDjLOBgQIwicfRsOYdxQ/YQ2NSAcUqhum6LOs87BKV7VqBGorzq52s6zDuyIbVxAh8hbp58+MSccJk6HXkoGhwEyqvQbXp9BbhqfLuUvVKgr3wlRj/xmPyyykbrOExnKLmkJ57jqq06uNvKMRZe142JDtE8GOsN2El0zJxwmhivjxGjY6LkudAc0Tmi00XYnh23IHoYdxWNjpMW+ylm2mWcM5MNl/7BON1FPWpc8kUgkIql80yeRSCQS/5EcZiKRSESSHGYikUhEkhxmR/DGCm9s8EZMIpHoBt5+818LHhp36ycxMDwWgRrZyu7uclc1dMeU+Dq3y8crRpXvKKCs3EFWebu4a+2jR5C6fmKDcuqtJ7ZhH4qvY9R65gkB8g89vUAd0P7aeN4zOcwWoDFgJCHnI0MqewyFSuTcrhlVvl1CR4XueQ5Sj/pUPQ7UJuSJoyTPMtuYLXBW/tsz1PVsPhw+Sj2jV99Rl4E86GTYt/563WL0oHDf0UPDFgyI8KrRRdlbSrPNqPLtChoSuh/Fs4lyluyrOtPZgrxxIl0wSj2TJx0BzjBmAKB2Sr0I5Mfhx9Jbh0nhqkZmfUKX3Bb1vFVwfBTvuo8q3y7AZnQ5Omr7kUPpymEqv9kcUYo+6ZmBFXLUwSjT6oZ2Gus0e+kw6QEoWNU8CD03TgolqfHzW4bJuYRzXCM8lKq3gfxehspGiTpGD43DDs37cJ6MhI3zyCdkoKRXVRGkRRrIivzKP9RbN5HRj6e4vi6b5Avo1C9zKE/SUn2wlelkEEibMpCu7+TVSHy55TDs1pXDskieQfJHf5yLXn2HhE2pXD7Skb8R1gT0a9PQ5pehb3qOdZjYLrZpQccxV7O9dJhUclVjo4GgHDUeOVgpjN+kgZGhCJTEbxoeztNXmOKwqbJlNNbZcT75kB55gByJvewmLuFVlUA5SI98VBbkIMyniYzqFMgfpCvfkGPzBaWneMrXTw/5lJ5+k17TxloG6ZIme8lIGapsxJdnlKAnq68YKB+bLun5X6ALbDjUcal+ZJ9NQafUHXmA6rZM133Rc6zDVDyVT6i9qt2U0TuHqcZsCyQ0OrKOiMYZaqByBGUGq17cNzAZuW+kQFoYqi+bKsAaaExDkQOQMwLKYHvAJjKG9OA3AIjNV3n4nYEasG9YobISr8qhDYLvPELOQsj4rW5GQUg3TeF865TK0kQvth6bgB0oXWwG2ylziH3Sc1OHGdId5bRtx9I7h0lll1UQcIwCW4dKmG2gxCG8LL2y42qYvoPyG6sP54YMNKahYIxsPrb8TWQE4lV1EBCTLxBHBkTjoOykbeMhg2S09dIm0gWyVuWDnMSrGy34qCHFbrHE2EEd1IHfkClXWcNGN1WdSSzoN2QnPn3ScxsOUx1AVV31ymHGVAAN1hqLCooT8ZFTKVOA8rPn0fCtEySMuLahhhwN1DUUNX5/lCfHg1yiiYwgQ+eckAOLzVdh2tQQ/Tg+kpN4VtZQIxl09Bly2BbVVR+os4MYdIUhKF8oPdUZ+h4W8sCOrP349EnPbThMoMxVHU6v3vRhtcNc4MoFt1i4yy4oxdP8cM0117i9CK2N41O12qNdJZF1VPLGOm0NIN4eyI00KG/dypBa6+Xmm292e9BCZ/7yuE1kBORjIazcMFwcLUImYvPVWj6588MK3do1pKc1giyE5x1Xtnjx4mzdunUz1uBBHtLRtmvXruJIPHpLqquVIfuC1u6h3rFDVukM2bTqsWwl1FhYLwhdh5ZM9hlnPZctfshS0f5aVZbeOEwEZMGskBOoAqdF5eLM7LKyLHSGA64jtNpjyAlOTEwU/00a7zPPPOP+D60BzfnIVLYypFbi9PNhidRQOSBGRl8+Vhd866233KJY/mthTfO10Dn5zpDfWmyMNGlk6Jx1yttkVCtD9gHZF4vKsZyvXXVTsAAeDLLCqqA+aU+fffbZlLOkE7T6Hlc9161OuWbNGrfX2v6W3jhM9Y53332325dBw2YVOioMR/DRRx85J+uPjgQOuGr1v6rVHlnBkPS1SiLOBAOh4eLc77///uyBBx5wx1i9UYbmU7UyJMuz2t6ZdKlMZOFcfsfKSFycqJwXcd9//32nL783jc2Xczj3zTffdOFspM1yuDfddFNx5qQje+2119w5gDyDNCRWhgwtGwvk3fbKkF3x008/uT12akFXVStiCjlAVv2kUyrr2LC1ugFCVZ7Y75NPPumcpTpU6oQRrXUwfdMzjhDqdFm3OiW6pS0cOnSoCDHkl0e9QPMhVXMmwFxZ3pDdpnkw/rfzNpo7KptzE8rXn3tjHoMwjkke9gpnDpV509wxTMnizwkKjpfJQLidx/PnAf05lhgZyYv/iUM4G3LauRrCY/OljEpPOrb1w7nkozyJT/p+PM6zctl5asJDc0eUk3P9+MQjvl8/QvN96GOUUEa/zGz8JlzIRkO2Y0EP/rkW9EBa6KSKsjxlq6EtlG8f9IxNIBu26cuLrqyNg+y8TmbZV4jeOEw1jDJwFKEGRTiFsw2wL1BxlMs27AsNGSn7UF1ThzGOow45qnFAzivGdtFZVUNXWqHO2adJnlWMk56B9hcaWIUgDjpCV5beOEwErOpBywo7DhVHr4/B99Wpd40MUtDpUb/DdioaZYVGF30EOatsXmA/urIoQyO+Oh3G5lnFuOmZdlc26gyhkWio84lymOqVZgsKRPpVlxM4Rb+XZU98zgv1BH0DGTHUOsOfi1BudXY0Nn77jZYrhzY6E+wBx1s1EusL0kOZg8PeOUaZ6kaN6I5y1zmEujxjGSc9c9WCfTXxEfJ3oQFaLxxmlYACo9Dcgra2GlpidqFecQCqNxrcsI3Wh7RId66M4nFElAedxYwsY5xlG8w1PZdB2WSnltYcJpmgSOLZuShdgpX1SDEOM5FIJLoCf+RfBYlWHivikRIe+NQzePaWvJ59Knscouzh7kQikegTrThMHCFvX/CsFs8Czps3rzgyCc8+NX0gPZFIJPrGDIfJg8A82Opvt912mztmw9l8GGnml93Z6tWri5DJsLI3ZxKJRGKcmOEweaUuv1Sfth07dswds+FsPnpbJ/Sesh+WSCQS40irr0bqnWR/NMkHNSCNMBOJxLjTqsNkHtN/p5v3q/nKzZ01XzQZ9usqiUQi0QWtOkzmKvlQAvAiPx9H4EsnwFxm2afBEu3DRxb4tJv9IEgiMVdhgIaPwfaHAb8Foad6WnWYfO6Mmz58ZozvOPIpLr5aw1eD+MoOX0IJoU+XlX0KLTEd3XCz37oU6Pqxxx5z36D0Oyl9qYbNfuVnNhlVvqOA8jFIUHnV+GYLBijUN22O/PxP/M0GfA2IL4CpfDipLmHgRXlDX7bavHlz9uijjzrbL/vyVQz//vuv2y9atMjtp3G+JyBK6EHRxEz0xkXoQX+9VVP2Jo0+VsLLAl0yqny7hDdD0D0vaKiOyuqhDUibl0V4443/0TG/Zwu9Y606JK+uXvWlfLzNRP5sVS+5EJe3nwb9mMvQ75J3AcrH2BL16NU563wUXmXEGBFxumZU+XYFdVHWyGYLnAZ5Uu+zjZxQ6HXBLmAwhY6RgzJXOUyQ0xtEN9JrqHNv9ZJ8GBjm54WbmgNNlKNHtexn9vkaN29UrV27tgiZCZeI+Yik+NUdo8q3C7BZPu4L+mL3bMOlKR9u5s26sjfo2mT//v3uHsX69euLkG7hLUI+pFy1ZIYPU1E8sYPcTdHHiINfri8c58ixw/2+wbvy+viHPnZAb6uejp6PXpDj+hACIz1GzYTZkQcjLh1jz/HQ5ZQuRciTuOSBHKG4MSMA8iJv9Kz8y86JlZFwxWMjji1vk3wZFXBMZSY9O1JAL6oPNuLym/Bhoa5Vl8gsNPLwy0Z5JIO/NbFj8pNO/LQps9LzR1SSw25NkX7tZqfGQnF8ebomNn/sAb02hXOsDkRvHKaMo4uvrjQFg5YzokH6zlENg9/Ek3Njj/ETl3h+g5czUOPgPOLYyuVcnAWb8qEBh/SkNKoMydexysL/hHG+T6yMchh+PM7z5WiSL52M9Ee8snKhb/RCHCBd4rWBZJQOgPIhUxnEI/4gyNFTHqtf1bfVk/QivTeF/Oz56Jhy+LYqBnU+s0HIHkIQh7iykRhkq35H6dOrSSU1gr4R6nFUGRYalXUYPjgEa6hAmG1wIadiHZRQuBxrCM6x+agcfiNpImNID8jtz6PG5othy1kKNWxrwIT5OpbDaRNfDziMMoZ1XiKkE8Ks7YEcaci5xYCd+OkiO7q3jlkM0yG0ja37MqTPqjZhqdNrrxymGlZZpcUgxxG71SlTMvkOAMqce2iU4BM6HurtFWaNVPLYClW5q8ojB0zagvStPLEyguQp65EhNl/i0TCJR/nQObKw+ecC5xI+qMOIQWUmL5u/j3QwjN1CqA5x1KE6RX/oqg0kv7VxgY45XlXHITgndotxgCI2/iAOE5uq6hx75TAB4+xLTwYoD6Vb7EgI1MDKKlOGZ88LOcEyIw45Ggg1NkvIGKy+m8goOJ9jdCIhpxGTLxBGOmzol/RopCFnRT7EYatqPKThj6SaQvp19qjyD4u1H3RdJju6GqZcQnqkfstQ3TdxPLOJr6MqmjpMdFEXvzd3yQUPv/N2Sl/ulp89e3bGq53Ixx3DZcuWFSGTsG40lL3qeebMGbfX0rmC9+3zBjDtbicP/sOCBQvcHtAJeecOqAj5Dz38X/ZtUc5lPW/7Jam8UWarVq0qQprJKHhBIXfs7jVY0iddEZsvEJY7ajyPW9qVO6M8jBy6M8q3CU6fPu3uhrIEb+hBZR6q1hMFg6C3pHjltwo+X2htZBAoZ+68snPnzrnfPPWQN3r3v4/0N+ya4Dy5QL1s27at8i08vhEBw6x3Pkrs0yRlYC/UY1U5e+cwqTjeR9+7d28R0i9wANu3b3f/24qQs6qrINYTFzRKGnXICYIcIaATHPXy5cuLkP/AgdDYyt6W0jrSS5YscXsoezwJYmSkrvQaGo8ykQfysWa4aJqvhUbtO0N+6w0nHAzOGie7e/duFyaoJ9ZQz0d/RUgzyOfw4cMufRw+6YUgvA3nJbB91o4nf+oz9NGaU6dOuf0w32BA7g0bNrg65AtlQD2HOh46jDY6hK7Rh8tjHkVC3y+//HKwg/LpncMEjBThKcSo4WPIvNpJr862Y8eObNOmTe6YNeajR49WVtD8+fPdnoYI9GgnTpxwjWRiYsKlr55eI7wjR4444+Z1sJUrV7owjuGorHFzLqOdECdPnnR7v/fUKHbhwoXulT4aTBMZcSQ8fyhnIkfpN+TYfIFGeeDAAZcHEE6j3rhxo/sNjOKpDzlq4oZGeFu2bMl27tw5zfELvapZtug/5WHUum/fvimnTtmwR/tqpzqEpUuXun0ZOHmeNa4Dx8tIfc+ePdnWrVuL0OkcP37c7es6nLI8KR/H+Kg3bQ3QIzZmryyISz2vWLGiCBkt8gkHDx50+yqwi3sjn/1lxQicZe1X1SavzPsH8ybM01RNtncB8xrIgaqYh0Me9nkDLWL8B3Hq5rs0H8S8keZhmC8kjDT9OUDNjZG/5jKZDySMc6xu8pGOOxaajyJtzvXx5wH9Cf1YGQmTPGz8b28MNMmX8hBf6VF+yuTD/BL651zisOe3Hw9dEQbIT5o+pMG5oZsYyIq+/XogLcljdS69WDktyICsdSA76VXNo0nGOsrylF2FNpuv5AnZVJdYW2OjbJTRryshG66rF0AfbDH01mEChVaD7RoUTQXZBsJvKiLU2PoAhtWHjmZUUG6//HKYNHzZkhxmqKE1hbRjnZeceBXYPHVYBbLHNPDYPKtAZ7GOpy9Q9zjTGN+BLcQ6S+i1wxwlGBoGZxkHA8IAcPZtOIRxQ/UT2tSAcEihum2KOs86B6d4VaNGoL7q5NKIj30VsXnWgR2xjQvoEHnr6mRQksMsAadDLyWDwwAZVfoNr88gN42vrmHNdagr3wlRj/xmPyyykbrOExnKLml1FaX6qpKLY7EOrCrPWDg/xjn3BdonA51hO4kqksMsAeNUg8Bo2DDUC90BjRMabbTdyWEbsodhR/HYGGmxr3KWGlniEKritQVlY6phWKc717iIP3lFJBKJRKKGXj5WlEgkEn0kOcxEIpGIJDnMRCKRiCQ5zEQikYgkOcxEIpGIIsv+D2TuUe6gxQDyAAAAAElFTkSuQmCC;" vertex="1" parent="WIyWlLk6GJQsqaUBKTNV-1">
          <mxGeometry x="55.9" y="373" width="232.83" height="54" as="geometry" />
        </mxCell>
        <mxCell id="xW0SYJLAr49xiK4sMMPl-70" value="" style="shape=image;verticalLabelPosition=bottom;labelBackgroundColor=default;verticalAlign=top;aspect=fixed;imageAspect=0;image=data:image/png,iVBORw0KGgoAAAANSUhEUgAAAW4AAABHCAYAAAAndq3FAAAAAXNSR0IArs4c6QAAAARnQU1BAACxjwv8YQUAAAAJcEhZcwAADsMAAA7DAcdvqGQAABunSURBVHhe7Z3bq93E+4eXv3vR79YrW0W0gqJFqIeK2kIFz14IFSt4I1g8I7QXnnvXFiqlFyKtFgoiiopKe+FZUGit4AFRVCxYRUrxykPVP6C/9czOp337dpLMWis7K9l7HsjOXpPJzPvOvPPOZJJJTjk6ZJDJZDKZ3vB/xT6TyWQyPSE77kwmk+kZ2XFPmc8++2xw0003DV5//fUiJJPJzDUvvvji4K677grtr5cwxz0qf/zxx9EXXnjh6I033sj8eNguv/zyo++++24RI2PLpowHH3wwlNu3335bhMyi80ijTVJkng9Q3mvWrDmmK//PNdPI00Kb3bJlS6s21XWd9+3bF9rfU089VYT0h7FG3HfffffggQceGNxzzz208MEvv/wy+Pvvvwe33nprf3uwhvnggw8GQ6MYDI2mCDmRZ599dvDRRx+FeJdeemkROsvQ4ML+uuuuC/u2qJN5PvDdd98NVq1aNVi2bFmw3WGjHZx//vnF0blhGnlaGF1ecMEFg8cff7wImXv6oPO1114bbH7Hjh0hfq8YFurI0IP5Xuq1114LvSo9XGaWoaFGy2PY0YWyKrtCYaTCcUYEbfO///1vXtchtku9tMk08hS0U66OgdElsrRBn3SW76Jd9oWxHHcMnEx23Mepcs5MkVQZNYaEA20byeynbuYLslE/6JhLppFnGTiwNhx3H3WmvXVB3lROmCp57733BkuWLBnMzMwcm/L4888/wyT+KaecMvj1119DWIzDhw+H/TnnnBP20wBZH3rooSA/8iI3l0Dc/BNPP/10OHbFFVeE31zScZwwzrWgr3TXcdJjmsNDOGVHPPa7du0K4cuXLw97Czcib7jhhuLXyezduzccJ3/Jhrzo56GeOEYc9EY25PRTVuipeJKRsrB8+eWXg6EBDxYvXnysnEiTcz3IQl5WZ+zHQzqqDzb0iaU3DqPYK/muWLEi/L958+ZjsoyCtR1bF5S39LM0kWdXsO3AbpS9LYu+6kx7e+ONN4pfPaBw4GEin5EgMBrUjQTCUm460qtN69IIkJ/LIjZd8tCDoqKuAvjNaBZ9FC6dOY9jglEnvTDloPR0o8XGA9IgrsI11UGaHh2rujKhHEmTMiVvyavLP0F+Sgv92TiXMMkMhCOfdFVZ+ZGI8mRj1EQ80vI3lUibfCSf8vXpIRf5agQveUl7UshT+pB3ir1Sfr5sUkF2NtWF6hqkvy8nmCTPplHdjgP2ovIGjapjZd1HnbFVZKYu+0B0qgQHJ0dU5WAEFWUbaB0UUOqWkj9gVMhgC17G5R2FGl+soQkMlcZoUeVagyxzqoRZQxdlMgnS5jj5SxedY50F8awzFhiplzuWJ3L7S0PO8/UY04M8fKfEb1+esUZj9WqKVHtFPl824xArE1++oqk8myBWH6nYtoV9qLxj9FFnte2ydtk1oo47xbGJmFNpGzk774hUGd5REI/wshGB9Pc6cZ43yJiDlzyxMok5UYvyZi9Ix8tbpgPyeKcieQgvc5qEE8eWYUwPyYf8nMMeO/EOH8iP8DJdmyLVXqmnFJuuwzsD9C5zDuPkSVrok7KlOCXh5R4HOW3f1izj6BzTrWxLHcxBqs7zwnFTOShR54zret620KWZL3SMx48MgbCqysThkJ53chikdYpybN6IY45WIGNMVkFalKmFPH3nwG+vW8zRCsnEebZTEHJ+1vnG9FDZaKMckTmmK+WHjMTjPFueKge/2fJNJcVeVTajNPoy0Je0BDLH6rPJPJsg1YmVofqsqqO+6tw3xx19jpsbbUPnMfj++++LkJPhhsTatWvDTQu2UfA3OKq22I1Azz///BP2PJcpuDHFzQbdhLR8/fXXlc9Icy76n3HGGUXI7E3AoVEOVq5cWYQMBr///nvY+xuyL730Ujj/vPPOK0KOc+qpp4b9559/HvYenu32Ny5jYcgydMLFr1neeuutsL/yyivD3kIdDR1cuJnH8/b+RuL+/fuDzPaZcm6SkofVg7IZNl68Vth4DnbTpk1RXSm/r776ajBsFOGGrL9JNXSAx9JhI6/777+/OJpOir1y4xWuvvrqsJ8E1TdtgPL466+/TrA90WSe0wZdqT/qdPv27UXoyfRd54suuqj4r9uc5LhpYOeee25o6DiMMh5++OGwt5WIEafcQbaNtW577LHHirNGA6cAfnGLnj645JJLwr6MmZmZ4r9Zo924cWP4P1axp512WvHfbPlhvDHnCciDk/ntt9+KkOOQD50KixYEZYqT9nqAlZEnNXbu3HlSh2GfgiENLbJ57rnnQpigrr3MhBG3DuT2nbeVjTp85ZVXgm4qf8px/fr14X+g3OhUYnpWkWqvcuoxBzsqF198cdj/9NNPg61bt4anJ2I0mee0UXt/9dVXwx67jA2K+qrzN998EwYOdrDWZU5w3DT+PXv2hIZGA6KhEUbjt4+X8T+jWf/4jB6Baxs5ThoxToTHtm6//fYQpkYmNNK98MILwz4Gjg9nie4YKCtFWSUKjJgpD/I666yzQhhlBoRjuDhA0uDc2NVImZPBEYAdrWhUf/bZZ4dRsh7hw8hIA32pD1aI3Xfffccez+IRNfKXQ+d/IC66+SuO2FWIRvWkIT2IYx0wezprlTeQFytp1WEgzzvvvBM6FXV8NBDbSLhKeeaZZ4pfs3A+V12cHyPVXiG1EyI/lXEZckrPP/98yDd2tQGpebYBZXjw4MHBhx9+GC1P6jDmiAFbwhbo9Kkz2Re24emTzhbkXrNmTfGrBwxHtWHuin+ZC9I8JPthxYT5Vj9fRTzix7Ymbv6MCrJKpqHRhDlPzXt7iIdeVWguj/OJT3pDww1l4ctD88A2XHOgnMt5HsI47udkNc+mOgArC+nqGDKRJ+GaP9Y8NfppHps8bH1xzKYDmm/2c9+kS7jXQ/rpmJ8XJC7nkldVPEE4OnpUHuhqQXalKT3Yl9mr4lfNzQripdgw8pJ/GaPkOZf4+tdGmLU/flN2Htl3bJuknOeSVJ2FdIy11a5ysmfrGVRGzCHQsKbRiaSC88PRyPEsZMoaFI4h5kxGRR1TLA8P8fyjnTGwr6qGPkqeXYA6mLS99E1noP3FOvuu02vHXTaq7osBMTLBAfgR5UKCuqIDi0HZNNGgdIVQ10lyxUEjrotHvfmrE09qnl0AGZGVupiEPukMtDtsDLn7Rq8dN44ZQ7EjJDU+RhB9gMaCrHWOYL5SNtqmXJq45NaUUkrjZMRZ1onq6giZ6gYEo+TZBegcJx3k9E1nfAb1PWlnNS16P1WC0dm5VP7v22XPQkWNfa7AiTThTHRPAttKGWn3yYE1wULUedrkjwVnMplMzxjrQwqZTCaTmR7ZcWcymUzPyI57jtECFRbsZDKZhQWLwVi85heETUp23BOg96mULfNnddm6devCuzrsCkoqUeemvIulKaaV7zRglan9cAQNqE1YPUr9163CbBqtamQFLXrbVw+0AfljWymvvmgKrexVXdu21gZVOvPunUceeST4gUZtIdyizIyFnn+NPcWip13Knmnl6QTObftxpGnl2yZ6TFQ68qxuW49bUt88XUH+ZbYxV5A3uvKYG/+jM7/bgkfseLoEvdt6HFdPJqmcKfs2n25J1Zn6IJ59dHkSOuu4aXxtGv046DEx7wQVXuUsqEDitM208m0LNZBpLbum8WIPyEE5t2nD5EWe01i6jbOUU6KzaMtxkw8DpGkwqs4aUNj6wVbGsdVOtmAUrBqtdgVVhJeTiqgzJuJMY0n+tPJtCzmvtkbYVbTpuHEG2FybI+wycGBtOG6cHmXc5gi7jFSdGVR4eWmTozrvzjluDBDlylawEY7jocJUCCitBoITpQBthdKIMWrCcLYWekwdY8/xmPGTLumRJ3HJAzlicVNGfORF3hif8i87J1VGdXjEYyOO13eUfKkLjkln0vOjOcpF9cFGXH430emSBvmTru1sqM9YGUsGu7U54vWMmz91hn5sth0QLr2oP6HOym/TItWJxbC2ZDfKwtqU2rjdxs2zCVJ1Rj/anYe2NYqtdM5xo3xZD6r5LBoslcimCpQh85t4crLsMXjiEs86HjklOTfOI44vWM6lYNmUD86PuF5WpVFVCcigc6UL/xNmGyqkyohchNt4nGflGCVfOUeOE69ML8qbciEOkC7xmkAdjBwWMrBVdQxlDWMaxMqrDnWW6Mf5/G9BP+rFo/pR/U8TbIJtHLAlq7PsOnYFpTboBxPTIFVn7AGZvf2q/tin0CnHjdFhlGWNkgbpC0cF4cHheMdlwRA4zxs6Yb6xxJybd5RC4ezLkCOy+UgPa4SjyBgrB+S2Bp+aL+Uvpy3kSGgsFsJsGROPxtckypt8qP8y+wDk9mUzLXzZjAq6+k6IsFiafXRiMWz7p73x29u/6FInnaqz2lvMP2C3qeXWKcdNJZQ1Ojkd3/OiaMxREFZVqbHjchDWUBTm5ZI8vqGkOG51BNYBkb6XJ1VGkDzesVpS8yWeGhD6UebIwmbPBc4lfK4dBnkgU1W5IkNdGXhUX6lbVf4e4k/iuNXILZS3rwOgHimfUaDtWN2qtlSHAsQdJX4MOW07ePBQFjjvUZi2zlWOW6PuFBvrjOOW4ym7VKCCOO6JVa6cW1mjUQP358WcscJ8hxFzeCBHUFX4OCFvcKRlO4dRZBSczzEMKFaOKfkCYaTDRvmSHs4w5jDUwNjKypvz0IN0xnVkKaMrlc0oznUuQZZx9QVdcUkf9CtLj7JJcRxtgByTyIK9YKveLi1qH5OUb5Ok6oy8VTYaa6MxOrMAh09XDYUu/ebgkSNHBsOCKX7NwmpEPpG1dOnSImSW2CfALFUf+R02gBM+RXXo0KGwX7RoUdgDD9yTN/J66j4GzLl8YmvVqlVFyPHvSqZ+iNjLKPj+57Cxh881kb4+Vwap+QJhQ0dLLxk+hMsnq1hIEPseH/X1888/h0UPfD7NLzJgccTy5ctDHZHOON8QJQ1kRy70KIOPG8N8+MYjyOb+/fffsKfu77333vC/RfVY9QHsvkD9spAFW1uIHyXmA+x8EtK23RidcNwIyXfh/JfMq6CC9Y1CXwhymmWFI2If+Y05Y5BDhm3btoUOw37UV+DIhqPP6MeA4Ysvvgh7+y1MGWFM3hQZ7ZLaW265JeSBfPrqO4yarwfnaZ0yv7VSTI0MZ28/nEsd0VHwoeVxV7ORBh3C22+/HX5Ljxh8Ud537n1Gg5gffvghrPx89NFHo53ngQMHwn4+fE1+oX+U+Prrrw/7jz/+OOzL6ITjlgO5+eabwz7G6aefHpw7Fcm2YcOG8HFc8KP0Tz75pLJwqj7yOzMzE9KXo9GIl4LEibCc+JprrglhHMNh+lEm5/Lx0Rg0QrAGp1H94sWLw9JZHPQoMjIa5cO1yAdy2LYhp+YLOD/b6xO+evXqwZ133hl+A1c11Ic6DOKis3WcyIGsyIz8bEpT4PzLPlIL1DMdtDrEl19++Vg9WAijHC677LIiZLrQscGbb74Z9h6WZqcsgaY8sWfSo1OOsX///rBP6YDnGuqh6gO92Bm6x45Rp1w5LOSPEnMljb67d+8uQkqYnTGZLpqbjc2hCuZShwqFeMwBEZf90LCLGMchTtX8GGg+1M7NMg9LGGnaOWLJR/6a6x4aTQjjHC/30PjCMfLwkDbnWuw8sb2xliojYZKHjf/9DbpR8kUf4is99EcnC3N0lD/nEoc9v208HSct5GfPbxtHYR50ItyWITKSF+fY+gHNB8fKvE18XahsvMyEUz51qByq2gb5YZvThHJHR6s3G2G2TjTH6+tPth7bZPuCsiC8ro3PNak6C+no25IHuyBeFZ1w3FWGh5Ic94aryvMOqivQ4NCpqsHNdzBg37hwQrYhEifFgdUhh1DXKLpCqu1Sfv7GuIe0pu3EUqGeYh31KDBoQOeYc+wq+AFv+2XIlqtusndiqoRL3CVLlhS/TmToAMNlk5/22LVrV9hrTqhrbNq0KczZMxWgy+aFCDc3LcPOrPhv9hKTy0venjYpTEkMO/joTduuwZsLh414cMcddxQhcZiiIl7ZFAmQFtx2221h33WopyeeeKL4NR7vv/9+2He17Xt0P2jYuSbdnNf07OHDh8M+SuHASyFKleefFC6ZyKNsxEA4PZVkoOfSJXNK7zVtkJtRZd2oaT7CiIi602WxRkqqS+qviVGTLkH7UsZcYfipAoG9Uz7YeN0omrbA1ShbH0CvOp3qoNywKa5o+wD1SH3L5lNQO6nyb1N33HVCYpxy3sRjw1AXoiPsI9Sr6o6po6Yvb7GFuUh3WqAL5VU3KNGcPk5hoUzHab6/L057XOoGszCx48ZoNJnu5yrllKsaVUrvkslkMgsJfCJX6mVMPMfN3M2TTz4Z5qJ5hMzy448/hj2Pg5VRtlAlk8lkMnEmdtwseuAZWxZ8DC9jitBZPv3003Azqg83jDKZTKYvHHPc9nuEdoMVK1acFK6FF4IHy/3KR54W4U5/JpPJZJrjmONmRd3R2TnvEzbYt2/fSeF2BR6r4X755ZfoezBsWCaTyWQmp5HnuLVk/aqrrgp70LJr+26MTCaTyUxOI45bL3zRO0N44Hznzp3h/7qXwMyHF+NkMplMmzTiuLkxCayEw2nzNrc1xYtU9KIY/3KhzNzAvQee9NELozKZTDvwEjX7ps5x0Urrqoc6GnHcvKuZp0fOPPPMIDyvZOQNejxlwruYWY5bJoRel1r2GtTMcXRjGMccgw5y3bp1gy1btpzwGlV745m3s7VJnczzBZae85ZD6Us7mGumkaeFwRg2l/KWw6boss74QV7fQBucpEz++++/sD/33HPDPsrRDoAYVQ+bZ2ZhsRNlFVusRBir7spW0WmlXdViqrmgSub5gpbcq2zbWNk7jTwFdcrqRfJvs277ojNxWeE57gvwpGfVwsVOOG4tW85Uw5vvrOEKhVcZsd7v0jZavtt2h9EWaqSTvoNjFKaRp4VBFvWJHNRtG467bzrL+Y7ztkrSrmszjUyVTAqXPjw6WPcS8oVO2Rdrtm7dGqaqqt4ix7yZ7ju0CR9cYMqs7iZ1X+EtldzjafPtfNPI08KHDqjPsg+VzAV905mpSuxebzEdBb6SA5VtpnDgU8VfAnUJRox6Fws9PpdL9PrqcemB6Y05rpffMPLlCoIwf7mDjlxhKD3SIT2vO+mSHnGISx7Iwbke4tSNRJCHUTf5SLayc1JlRDelxcY5Xl/OQ25GHion4qGfhzjEl87E8yMWzlN9sBGX37H0xgFdSRO9lCY2gCyEWSSD3WQXKZC+ysTXhcqV4xabl7ZR8myaSfJXPfttvuiMXXqbSYFzfBl4OuG4aZwUhhxfV9ArJGlUNDLb0OTE+E08OVn2OC/iEs86HnVQVLrSUwO18QjHUbApH011+DLSVESVIdnylS78TxjnW1JlRC7C5KhVVl4OziVPyonz6dQ4z8//Ea7yI88yvUjHOn7SJl4TkCf5qbyQkXwke4xxGyegK3mqLmwe0t+XE0ySZ9PE6igFypVzbUdPOthArKz7qDNxiCtbTcHaXhWdcNygBtklMBTksqgyPDS+mOMSVAjH/ciK9L1Bxpyqd5RC4XLwMeSMbd7SwzaSUWSMlQNy23l2GaF1tDE9OCanLdSwvQETZsuYeHNhN6SJs6Asqso2Vl6jEisTwkg71uibyLMpfH2kgn62baE7elmbt/RRZ7WRKvvxYO+cY9tljM44bjmXsoqrQ8afutUVpuTxN/zKOhjCqkYEsVEVcJ41SDksb6SSx58vvav0Ud7WCZB+WYdRJyNInqqRgUbXtgxjepCvnBThxCdPNu+4kJlwL2PTSKaqBooMdWWQCunYvEgzlve4eXJO6pbilMSo8WOUtTUxjs5N+wML8VN0Js6oaWPbDBjq6IzjBhplV3pVCo9C99CYadQWOduqypTDscggMVxRZsQxRwspjjtmDLGyTpVRcD7H6MxiHa6cnyWmB79Jh434pEcj9U4byIc4Mada1ljHsSny51z0L0N1NUrDLINytyNQfsf0bzLPJkCWSRy36jNmX6KvOo/quCmL1PideKpEbNy4Maz468LTJUeOHBkMG1LxaxZk48720qVLi5BZeHICqpbvDx3ACd9bBL3Pxb6v/NChQ2G/aNGisAfKg7yHjbkIOY4WMJW915xzeUtj7AVgK1euLEJmSZVRbN++fTDsYAYHDx4M6fvVsbE3RsbCyHfo5OklwzcquYPPYobYHXxeq/Dzzz+Hu/as0PULHZSONvQhrVGgzHbv3h3+P3DgQNjH2Lt3b9g38cQMcsruqeu1a9dG9W8yz2nDk07YDd+gtAvGPH3X2T8FVgaLifA5KXp2ynFTeTiIbdu2FSHdgUb1zDPPhP99Rchp1lXQzMxM8d/x97kMRxvRVaVyyEB50GEsW7asCDkOjow0ylaefvHFF2FvX/ZV9lghpMhIPWlZL48gkgfyycmDOgwrszoMvdOmCvK2TpnfWn2JQ6PTwElv3rw5hAH6rF+/vvg16wD5CHVKfpYNGzaEusaZ7t+/vwg9Gd5F7zv3caGcKC/Kbc+ePaWdTZN5ThP0XL16dbAlfUCX+oqtOOyrzjzWhw2lPEKIfe/YsSOsek5iOCrpFMOGHS6dxp3rbgpNlSAPG5fbuvTxDI0qOo1h4Tgbl79cCnEO6SmM9MlHl4WaKiCcaRPCOMa5fqomNv0gYjIrjPT5X5epqTLym/IhDDStYC/x+L8sDH3YpIfKj7QBefhtbcBfLhPXTy94OGbzB8L8dJCFfNAZ0NHqLn2B/5HH14XH6lyF4pFnme2n5tkWurQvK88yWdGDcyhTQX3S7v08dt90tqBPqtykJ7tLoXOOG9RwbUNpGyoIGagkOSn2MUdBHGuEMUiPilRc0pNDJh/bsDnuw6lYwjAEXy4YPcfkgC0xRyVZfENJlREZJA8b//sGZzsHwf8xPdgjp9IjbzlxgWOj/CUfe377eIL4Xm8gH871SE/b0EiDuL5+QPFjZW6RQ/bl46EMiFfVeFPznGt8/bNRTpQtNiQIp448su/YRnlZ+qazQF7ilNmnhfJgG4VOOm5A8VF6oKagoKkg63BADauuAU4LDAsH4+VeqNCgYo2d8JgzGRV1THUNU4471rgtsrsqUvPsCk20l77pDLRBnHqK/8I+RnXa0FnHPS3KRtV9MCAMgMZf5yTmOzQGOjGPOl8/qhsHyrnO0QIdasyeLMhFnDrbSs2zCzBSxnlNOpDok85A20Nee+U2F2TH7cD5YXBq3BgeowYafEoPOm2QGyfgL+0XEugfG21Tf01ccusyuK6M5ZBjzgsnLWfNvq6zTc2zKzAAmnQA0Ted8RPo3cTAoI7suB00MjlvjIaNHnQhO8I+gbOg7uYKbIHR/KQdgJxSitNuKs8+sRB1HoVT+DM0oEwmk8n0hE49x53JZDKZerLjzmQymZ6RHXcmk8n0isHg/wHl2jEwIRz7JAAAAABJRU5ErkJggg==;" vertex="1" parent="WIyWlLk6GJQsqaUBKTNV-1">
          <mxGeometry x="347.21" y="376" width="262.9" height="51" as="geometry" />
        </mxCell>
        <mxCell id="xW0SYJLAr49xiK4sMMPl-71" value="" style="shape=image;verticalLabelPosition=bottom;labelBackgroundColor=default;verticalAlign=top;aspect=fixed;imageAspect=0;image=data:image/png,iVBORw0KGgoAAAANSUhEUgAAALsAAAAZCAYAAABpRF+PAAAAAXNSR0IArs4c6QAAAARnQU1BAACxjwv8YQUAAAAJcEhZcwAADsMAAA7DAcdvqGQAAAW0SURBVHhe7Zy7SyRNEMDbLzdQMwWRu0sEQRDNjFWMBIUThEsEQQVBOHwbHYJnfIiCgYmoIJyBGpgIvhIfeKgg+EAw9YH3D+ztr5z6bnac3hlf63jOD5pea3p2qququ6tmuctKJDExMe+A/5w+JuafJw72mHdDHOwx74Y42N8g6+vrpqamxszMzDiS98v4+LhpbGwUmwRCgfpYTk9PE319fYny8nKKXGmfP39O7O3tOSOizeXlZeL79++J6upqRxJ9Wltbxd6PtfH09LT4KCcnR/z18eNHsUHUQW90xWde1tbWxCbEYjqeFOxqLB4G9MgwpJ9SUWJsbOx/h7+VYCcobQ4PA/czX4KC76AR+MiiGvDEFHNGR5oN5oI/8auNJwf74uKi89cd7DzIdQFEEZytRmFHeEqw6wJ/aThF/ez9EAho5utGvzeKC57dXBcmfZCdGc8Y5uTHs3tJd48oB7sbnPwWgp1NhB3uJYhqsLvRuAqC3d2WztwrUCl6cnNzpf369cuR3smzsrKkpSsGzs/Ppc/Pz5c+k4yMjIjenz59MldXVyJjDhUVFSKLEktLS6IT+qo90ZnCExv39/eLTMH+VVVVzl+pMEe9j4JNwR7I0hWyZ2dn0n/48EH6TGCbO4Um+qpOjwEbzc7OOn+lkhLsPGR1ddUcHx+bm5ubFMOhSDK/M8mVYyorKx1pKiiMYZO7UEaNB7owt7e3TfIYM3Nzc6JPd3e3TP7k5ESuRwFsdHFxYSYnJ8XOh4eHIm9vbzejo6MmuTOZnZ0dkQFzY1xRUZEjSQU/TU1Nid17e3tFxjNub2/ZCsV3NrATfP36VfqXBp8sLCyIPwj2Hz9+iHxwcNB8+fJF9H1K7JSVlYn/ec49ZH/3gWPNe2wiS1fIUOyQE4YpoPT4D9sekhahA7pw9Afd95ppjN7r1ZFj2H0U28Z5IZ9nnL5xCYI3Ojr+NWCOpB08P6hADpvGpEujrXf7fXm6NwGMR/EovHZUIwYZEB4S7GqTsC0I/T5vQYWd3bKwwY5vGJfOTwrXsREbQhh0TmFaGLuDLs4wC1NtFYSO87OV9UelkpIS6TWn4lhsaWkxeXl58rcbrg0PD5uVlRVTWlrqSF+PwsJCOfYbGhocyfPQ1dWFtVNa0qhyzSunBUGaAe5jG3uTdz7mKMc3pJnc7+cnhSOeHJ/0hrQpDH7zszXsFIaCggLp6+rqpH9prMGuivz+/Vt68svm5mb57IZ8sq2tTYz2kEDHqRQjYZsuuiBw5M+fP+Xz0dGR9FGFvDx5qjh/3ene2dlpvn375kjuyM7Oln5zc1N6G2w6sLW1Jb0N8mPwPifTUGuwOPf39x3J81FcXOx8+os12DVwDw4ORKmOjo57uwXOqa+vl8LIXQRhdN4EpIMi129XsDVbUewFRw4MDJjkUW42NjYcaTRxF1F8bmpqMhMTE/fsjC8ICn3T5Qebzvz8vGw6FOnu73aDL/EPRbv7OZl+W4UOFNzEzfLysiN9Oru7u+J735MtGUhWNJ+15XXkR+SHbsgFuSds3vacuAsd8kDNXdHfL4dFxhjM4Hc9DJpPPwZyZmxFnaO9DebgtbWiNqfXopMfzfjs9gPXeaa3INXcOVOgl+bp6MmzkfHZVpcwnnFBP6oxP3dx7ybtDLXQ8wsENRwK+LV0P9s+N+os7xsM9CNAvAbC2QSHV2dkD30z8ZRgJ4C5l972q5/CdcZ69ePNE3N0LxQNDO8i1+LNr2GrlwZdeJYuTJWhP8/3bpDMibHeOGPOfgGNbbhus2VaL2GsoJUUkzlwMIHhDuCYO7CJ34JxY83ZyamSN5va2lpHEvPaDA0NyZsW3qToj2gxf39BTm7O6d8EOUEvsJNzLJOC8DkmmuAjjvf41L3L+UnbbLm+m5R/cE1Ffn19bXp6ekK/K42JeSvE/7tAzLvBmrPHxPxrxMEe804w5g+KRE+hNh43iwAAAABJRU5ErkJggg==;" vertex="1" parent="WIyWlLk6GJQsqaUBKTNV-1">
          <mxGeometry x="448.2" y="476.5" width="127.16" height="17" as="geometry" />
        </mxCell>
        <mxCell id="xW0SYJLAr49xiK4sMMPl-87" style="edgeStyle=orthogonalEdgeStyle;rounded=0;orthogonalLoop=1;jettySize=auto;html=1;exitX=0;exitY=0.5;exitDx=0;exitDy=0;entryX=1;entryY=0.5;entryDx=0;entryDy=0;" edge="1" parent="WIyWlLk6GJQsqaUBKTNV-1" source="xW0SYJLAr49xiK4sMMPl-78" target="xW0SYJLAr49xiK4sMMPl-84">
          <mxGeometry relative="1" as="geometry" />
        </mxCell>
        <mxCell id="xW0SYJLAr49xiK4sMMPl-78" value="" style="rounded=0;whiteSpace=wrap;html=1;" vertex="1" parent="WIyWlLk6GJQsqaUBKTNV-1">
          <mxGeometry x="219.51000000000002" y="455" width="180.85" height="60" as="geometry" />
        </mxCell>
        <mxCell id="xW0SYJLAr49xiK4sMMPl-76" value="" style="shape=image;verticalLabelPosition=bottom;labelBackgroundColor=default;verticalAlign=top;aspect=fixed;imageAspect=0;image=data:image/png,iVBORw0KGgoAAAANSUhEUgAAAN4AAAA7CAYAAAAU7jSGAAAAAXNSR0IArs4c6QAAAARnQU1BAACxjwv8YQUAAAAJcEhZcwAADsMAAA7DAcdvqGQAAAheSURBVHhe7Z25ixTPH4bLXy5emYqIJoqKoGviFQgeKJiIrmAiKOKFochqIh64YiTiAQoGwioqJioeoOCKgReKioEHIobe/gH766e2P1Lb2zPT3bPTvfP1faCo6Zrq6p6ueqs+dfWM6ItwQohS+V/sCyFKRMITogIkPCEqQMITogIkPCEqQMITogIkPCEqQMITmXn48KFbsWKFu3jxYhzyb3PmzBm3fv16/1xywwS6aD09PT19U6dO7fv69Wsc0l5s27atr6Ojo+/FixdxSD4+fPjQ19XV5dOg2OE6OzsLp1cm9fKut7fX/yZ+Wx4kvBZDxpBpVtjake7u7qYrDX47afA8AJ+wMWPGDNvKKGvecf/8jtOnT8chjZHwWgg1JTUhGYPfrPA43wpuWdBScd0bN27EIcVIS4NWtIrflIW8eUd84vC8sqA+XgvB/j906JAbN26cGzVqVBzaXhw7dsxFtb5buXJlHFKMqKwNSmPy5Mnxp+FH3rwjftTquXPnzsUh9ZHwcsLAwtixY717+fJlHNofPmLECO8KdbZbwNGjR//eUwj3l7xPi7d9+/Y4pB9+17Jly+Kjgezdu9efM2/ePPft27c41Pk0LL16fPr0yfvjx4/3fqtpdd7xnC5duhQf1UfCy8HHjx/dgwcP3Lt379yPHz/8qJZBjdfZ2elrvYULF8ah1bJ7925/TxAWqDdv3nj/9+/f3ofIDPT+4sWLvQ8UTn5nWstEYZ01a5Y/7+nTp+7u3bvxN84dOHDAt5J27TQQKmlE5qabMmVKHNo6ysi7OXPmuMjUHFAJ1ULCywEF5OTJk978WL58ubtz5078TT8/f/50e/bsiY+GBxSGJGfPnvX+69evvW8gFgqh8efPH+/Pnz/f+yHEw5n5SKE2eD4UwJ07d8Yhg9mxY4e/HiItgzLz7u3bt/Gn2kh4BVmyZIkvXCHv3793mzZtio+KY6Zg0sGiRYsGhdczj5KiIS41fkdHRxzSz/Xr193Bgwfjo3xQkGlRDFpKwmq1HpjAFHwqAIRQj9BczuKy0Mq8y4qEV5CZM2d63wo9ZtOWLVsaFqQsUGAZjEg66O3tHRSexTz68uWL9xEXjvu0PhZCefLkyYDWLg9z5851t2/fjo/6J5b37dsXHw2E53TkyBF3//59N3v27Di0NpjLyd9bz2WhlXmXFQmvIBMmTPC+9ZPOnz9fao2ZlenTp3v/8+fP7ubNm/6zCcxaqc2bN/81P0NGjhzp/UePHnm/FpMmTfI+fRvS/P79e2plgMAZeMHkyyK6VtHqvLNnXg8JryBWcOgnUcPv2rWr1BozK3ZPv3798vfY3d3tj2mlAFNu7dq1qUIgjAEHaxlrMWPGDO/Tt2H64fDhw/44BFGuWbPGD6aELSutDfdQJq3Ku+fPn/t+a5a0JLwmoB9z7949X5M3muciU8BanTJBPKdOnfLmlBU65qYeP37sLl++7M25WiCS5EBEEmvdTpw44dNPG6W0+S3mxgzESGtTBa3IO55TvZHcAUR2sSgIKxqiQl1zyRPrEKMM9nF41OaKrO0Dzi2yyoN74JohLG/ivhqtlWQlBtdlZUY9SJ/rpGFLqsJnELo8S62GiqHOu7wrVyS8JmDJU7NLqdoBClpkQtUspECBzFrohgNDmXdWsbCmNSsyNQtC3yR62E0vpWoHMA9ZlcGWIEyzJAyY7N+/v5SJ8KFgKPOO58Fzoe9az2QfRCzA0qBW4LLtVDsa1JKYephGfP7X4LdjftFSWAvIc2hkhg4HWpF3pBX16QqZ/6ULz+zmdoTCltek+C9i/T6eR7uY2sMt7/QmaSEqQH08ISogVXjhdg+wDiRh+GnQYSW+rZmjwx2u0g7X3KWtLeSabNewOGkdeVZFkK7F43rhGkEh2gZvcAZYZxnbna/pQDKcTEeaz4QlO5Ocg/1s4fjES9rTpEN4cliaeJxvc0o2JxJeh/shjt0LcdOuIUQ7UHNwxYQXTopaWCgIE0lyZIvzwnMBgSYnciEtLvFMoPgmOoMwrktlUA+ESbysTogyqFnSrHUKh/2tEIcgEEaMkqSJiXhpQ7nJFjMJ98L3iI37oQLguqE4yyAUqJxcI1ePmt9awQ5JislanTQxEc4ch2FD0GlzPqTDtSytpJgQLN/hECD3QEtXpuiEGEpqCo9CnmbahX2qWn05M0lDkZlJWm9tIOkgrKTgk/eSB5maYjiSOqppo44LFizwPth29rTXACQ5fvy4X5KzdOnSOMS5V69eeT+5/YQRSoMlNxcuXPDv8Egb+QxhxJOR0Ea0YiOlEM2SKjzb+Dht2jTvg+1gBvYwMX3AdpDIDPRbS5g6wDHcz25kBBTuS3r27JmPa3GYBsDxGgLbj8V3vIIA0YabCSPT0r+9yaYOuDZ7u9atW+ePhWg7olp+EPShkgMm9NEwA3GhaYnpaP0zXK21a2Z+ki6fgTTp04V9OK6dPB8zl3CLwznhoI8Q7YaWjIncYJlcuXLFXbt27e+7VqLK1+9Q+Bd2awwFWjImcrNhwwa3detWt3HjRt8vjqwP32VYtWpVw7656EfCE4Xo6ur6++4U9uHZqwEbvRhJ9CPhidzcunVrwLtTYOLEifEnkQUJTwwJNuptr/oT9dHgihgS2E3C25hxojFq8UTTMK/LqwKvXr0ah4hGqMUTTcEoJv/n0NPTU/gV8P8iavFEYVi2t3r1aomuAGrxRCGYRKdfx1sA+C8EkQ+1eKIQ/L8dhKJjLW2tV4OIgUh4Ijf061i0nvzb4az//y0kPFEAW6XCbhN7ORWOfwkaPXq0/07UR308ISpALZ4QFSDhCVEBEp4QFSDhCVEBEp4QFSDhCVEBEp4QFSDhCVE6zv0fyiHdEdyyfUsAAAAASUVORK5CYII=;" vertex="1" parent="WIyWlLk6GJQsqaUBKTNV-1">
          <mxGeometry x="221.51000000000008" y="461.5" width="176.85" height="47" as="geometry" />
        </mxCell>
        <mxCell id="xW0SYJLAr49xiK4sMMPl-84" value="" style="shape=parallelogram;perimeter=parallelogramPerimeter;whiteSpace=wrap;html=1;fixedSize=1;" vertex="1" parent="WIyWlLk6GJQsqaUBKTNV-1">
          <mxGeometry x="87.46000000000001" y="468.75" width="89.88" height="32.5" as="geometry" />
        </mxCell>
        <mxCell id="xW0SYJLAr49xiK4sMMPl-77" value="" style="shape=image;verticalLabelPosition=bottom;labelBackgroundColor=default;verticalAlign=top;aspect=fixed;imageAspect=0;image=data:image/png,iVBORw0KGgoAAAANSUhEUgAAADUAAAAZCAYAAACRiGY9AAAAAXNSR0IArs4c6QAAAARnQU1BAACxjwv8YQUAAAAJcEhZcwAADsMAAA7DAcdvqGQAAAItSURBVFhH7ZaxbQIxFIZNNoARYAAaaKBGsAEzwAAUMAGUVAyABAvQ0kBJAaKggglghks+x3/OcXxJgyIduk+yHL979vNvv2dSSj4wL8ab61+KQlReKEQ9g9lsZkqlkrndbs7yfP5d1Ha7NeVy2VSrVWd5PsWTnheioiaTic37ZrNpx6fTyfR6PWujj7Fer60/PrThcGgej4f7mtYSbb/fO2sKMSuVypcPcYjrQx2yrvyIF61N0s9nMBgkq9Uq2Ww2pGWyWCyS8Xic3O93+ze23W7nvD9hzkedfNnp8ZtOp3YsWAc7a/ngx/zj8WjHxA/jsB98tBd8YzHghyghUd1u11lSmx9MG6D3YZ4/FxDfaDTcKCXmi5/E00uQwEZcDjokU5RO9Xq9OsvniWLzIXitVnOjlNhG8UNYSHjTIeyF7whhPxwucX3hPpmiNMkn3KhOK7ZR7P1+340Suxls4Y0C6xBLa4Ub5TD4RkMce+CGYoIgUxQLxK7bz+Gs2lGa+gKUpqqbGKqt8DDDvfxF9PXT69Rut20Pl8vF9q1Wy/a/MZ/P7Q9sp9NxFmPO57Pt6/W67QUvmRiNRma5XJrD4RB9IX14GXkxozhx31Dt+PWkk+Z2uHrdAqmh3KaRPvhxWz6kDL7yYW2lpG5a31Q/QnO1H2Izzrr1qCgt4sOCBKP56cbCqgcadRQreKUk60owayICm+YTO5yPQOzy0aFkUfyblBcKUXmhEJUXXlCUMe+fE9WcH4W0LwAAAABJRU5ErkJggg==;" vertex="1" parent="WIyWlLk6GJQsqaUBKTNV-1">
          <mxGeometry x="110.14000000000001" y="475.25" width="44.52" height="21" as="geometry" />
        </mxCell>
      </root>
    </mxGraphModel>
  </diagram>
</mxfile>
